<?xml version="1.0" encoding="UTF-8" standalone="no"?>
<svg
   viewBox="0 0 16 16"
   version="1.1"
   id="svg6"
   sodipodi:docname="comp-off-black.svg"
   inkscape:version="1.1.2 (0a00cf5339, 2022-02-04, custom)"
   xmlns:inkscape="http://www.inkscape.org/namespaces/inkscape"
   xmlns:sodipodi="http://sodipodi.sourceforge.net/DTD/sodipodi-0.dtd"
   xmlns="http://www.w3.org/2000/svg"
   xmlns:svg="http://www.w3.org/2000/svg">
  <sodipodi:namedview
     id="namedview8"
     pagecolor="#3d3d3d"
     bordercolor="#666666"
     borderopacity="1.0"
     inkscape:pageshadow="2"
     inkscape:pageopacity="0"
     inkscape:pagecheckerboard="0"
     showgrid="true"
     showguides="true"
     inkscape:snap-to-guides="true"
     inkscape:snap-grids="true"
     inkscape:snap-bbox="true"
     inkscape:snap-intersection-paths="false"
     inkscape:object-nodes="false"
     inkscape:bbox-paths="true"
     inkscape:bbox-nodes="true"
     inkscape:zoom="22.784502"
     inkscape:cx="5.3764616"
     inkscape:cy="5.9909144"
     inkscape:window-width="1600"
     inkscape:window-height="833"
     inkscape:window-x="0"
     inkscape:window-y="0"
     inkscape:window-maximized="1"
     inkscape:current-layer="layer2">
    <inkscape:grid
       type="xygrid"
       id="grid10" />
  </sodipodi:namedview>
  <defs
     id="defs3051">
    <style
       type="text/css"
       id="current-color-scheme">
      .ColorScheme-Text {
        color:#eff0f1;
      }
      </style>
    <path
       class="ColorScheme-Text"
       fill="currentColor"
       d="M8 11.707l-6-6L2.707 5 8 10.293 13.293 5l.707.707-6 6z"
       id="path1119" />
  </defs>
  <g
     inkscape:groupmode="layer"
     id="layer2"
     inkscape:label="Layer 2"
     style="display:inline">
    <path
       style="color:currentColor;fill:#232629;fill-opacity:0.25104389;stroke:none;stroke-width:1.33333"
       d="M 0,0 V 15.041668 16 H 16 V 14.666667 13.333333 12 10.666667 0 Z"
       class="ColorScheme-Text"
       id="path4-3"
       sodipodi:nodetypes="cccccccccc" />
  </g>
  <g
     inkscape:groupmode="layer"
     id="layer1"
     inkscape:label="Layer 1"
     style="display:inline;mix-blend-mode:normal">
    <path
       style="fill:#232629;fill-opacity:1;stroke:none;stroke-width:1.33333"
       d="M 0,0 V 15.041666 16 H 16 V 14.666667 13.333333 12 10.666667 0 Z M 1.3333333,1.3333333 H 14.666668 V 9.3333329 L 12,6.6666672 7.5416668,11.125001 5.75,9.3333329 H 5.708334 l -4.375,4.3750011 z m 4,1.3333334 c -1.4727593,0 -2.6666666,1.1939072 -2.6666666,2.6666666 C 2.6666667,6.8060928 3.860574,8 5.3333333,8 6.8060926,8 8,6.8060928 8,5.3333333 8,3.8605739 6.8060926,2.6666667 5.3333333,2.6666667 Z"
       class="ColorScheme-Text"
       id="path4" />
  </g>
</svg>
