<svg id="svg" version="1.1" xmlns="http://www.w3.org/2000/svg" xmlns:xlink="http://www.w3.org/1999/xlink" width="400" height="384.8484848484849" viewBox="0, 0, 400,384.8484848484849"><g id="svgg"><path id="path0" d="M199.573 4.014 C 199.445 4.347,199.434 4.865,199.550 5.165 C 199.665 5.466,199.490 5.814,199.162 5.940 C 198.795 6.081,198.641 6.458,198.762 6.920 C 198.870 7.333,198.716 7.872,198.420 8.118 C 198.125 8.363,197.883 9.149,197.883 9.864 C 197.883 10.579,197.709 11.165,197.498 11.165 C 197.286 11.165,197.113 11.490,197.113 11.887 C 197.113 12.285,196.853 12.826,196.535 13.090 C 196.218 13.353,195.958 14.135,195.958 14.828 C 195.958 15.592,195.731 16.174,195.380 16.309 C 195.018 16.448,194.803 17.036,194.803 17.890 C 194.803 18.637,194.629 19.249,194.418 19.249 C 194.206 19.249,194.033 19.575,194.033 19.972 C 194.033 20.370,193.773 20.911,193.455 21.174 C 193.138 21.438,192.878 21.958,192.878 22.329 C 192.878 22.701,192.642 23.200,192.354 23.439 C 192.066 23.678,191.907 24.273,192.000 24.761 C 192.099 25.277,191.915 25.859,191.561 26.153 C 191.227 26.431,190.953 26.973,190.953 27.358 C 190.953 27.743,190.791 28.159,190.592 28.281 C 189.951 28.678,189.028 30.887,189.028 32.025 C 189.028 32.655,188.779 33.229,188.450 33.355 C 188.133 33.476,187.873 33.883,187.873 34.258 C 187.873 34.633,187.613 35.155,187.295 35.419 C 186.978 35.682,186.718 36.483,186.718 37.198 C 186.718 37.913,186.545 38.499,186.333 38.499 C 186.121 38.499,185.948 38.824,185.948 39.221 C 185.948 39.619,185.688 40.160,185.371 40.423 C 185.053 40.687,184.793 41.391,184.793 41.988 C 184.793 42.585,184.620 43.180,184.408 43.311 C 184.196 43.442,184.023 43.864,184.023 44.249 C 184.023 44.634,183.763 45.165,183.446 45.428 C 183.128 45.692,182.868 46.238,182.868 46.642 C 182.868 47.047,182.608 47.477,182.291 47.599 C 181.973 47.721,181.713 48.138,181.713 48.527 C 181.713 48.915,181.540 49.340,181.328 49.471 C 181.116 49.602,180.943 50.197,180.943 50.794 C 180.943 51.390,180.683 52.094,180.366 52.358 C 180.048 52.622,179.788 53.141,179.788 53.513 C 179.788 53.885,179.528 54.404,179.211 54.668 C 178.893 54.932,178.633 55.472,178.633 55.870 C 178.633 56.268,178.460 56.593,178.248 56.593 C 178.037 56.593,177.863 57.178,177.863 57.893 C 177.863 58.608,177.603 59.409,177.286 59.673 C 176.968 59.936,176.708 60.459,176.708 60.834 C 176.708 61.209,176.451 61.614,176.137 61.734 C 175.823 61.855,175.658 62.192,175.770 62.484 C 175.882 62.776,175.706 63.236,175.378 63.508 C 175.051 63.780,174.783 64.306,174.783 64.678 C 174.783 65.049,174.524 65.569,174.206 65.833 C 173.888 66.096,173.628 66.800,173.628 67.397 C 173.628 67.994,173.455 68.589,173.244 68.720 C 173.032 68.851,172.859 69.300,172.859 69.717 C 172.859 70.135,172.599 70.576,172.281 70.698 C 171.963 70.820,171.704 71.226,171.704 71.601 C 171.704 71.976,171.444 72.499,171.126 72.762 C 170.808 73.026,170.549 73.557,170.549 73.942 C 170.549 74.327,170.375 74.749,170.164 74.880 C 169.952 75.011,169.779 75.435,169.779 75.824 C 169.779 76.212,169.519 76.629,169.201 76.751 C 168.841 76.889,168.624 77.477,168.624 78.310 C 168.624 79.045,168.450 79.754,168.239 79.885 C 168.027 80.015,167.854 80.464,167.854 80.882 C 167.854 81.299,167.594 81.741,167.276 81.863 C 166.959 81.985,166.699 82.391,166.699 82.766 C 166.699 83.141,166.439 83.663,166.121 83.927 C 165.804 84.190,165.544 84.894,165.544 85.491 C 165.544 86.088,165.371 86.683,165.159 86.814 C 164.947 86.945,164.774 87.367,164.774 87.752 C 164.774 88.137,164.514 88.668,164.196 88.932 C 163.879 89.195,163.619 89.742,163.619 90.146 C 163.619 90.550,163.359 90.980,163.041 91.102 C 162.724 91.224,162.464 91.642,162.464 92.030 C 162.464 92.418,162.291 92.843,162.079 92.974 C 161.867 93.105,161.694 93.527,161.694 93.912 C 161.694 94.297,161.434 94.828,161.116 95.091 C 160.799 95.355,160.539 95.896,160.539 96.294 C 160.539 96.691,160.366 97.016,160.154 97.016 C 159.942 97.016,159.769 97.342,159.769 97.739 C 159.769 98.137,159.509 98.678,159.192 98.941 C 158.874 99.205,158.614 99.987,158.614 100.680 C 158.614 101.444,158.387 102.026,158.037 102.160 C 157.719 102.282,157.459 102.724,157.459 103.141 C 157.459 103.559,157.286 104.008,157.074 104.139 C 155.996 104.805,156.666 107.765,158.228 109.235 C 159.075 110.032,159.768 110.945,159.768 111.264 C 159.769 111.584,163.580 115.653,168.239 120.308 C 172.897 124.963,176.708 129.015,176.708 129.312 C 176.708 129.610,179.220 132.347,182.291 135.394 C 185.361 138.441,187.873 141.154,187.873 141.422 C 187.873 141.690,190.300 144.325,193.265 147.278 C 196.231 150.231,199.017 153.210,199.457 153.898 C 200.286 155.198,201.347 155.576,201.347 154.572 C 201.347 154.254,201.607 153.994,201.925 153.994 C 202.243 153.994,202.502 153.764,202.502 153.482 C 202.502 153.200,202.936 152.738,203.465 152.454 C 203.994 152.171,204.427 151.709,204.427 151.427 C 204.427 151.145,204.658 150.914,204.940 150.914 C 205.222 150.914,205.684 150.481,205.967 149.952 C 206.251 149.423,206.713 148.989,206.995 148.989 C 207.277 148.989,207.507 148.829,207.507 148.634 C 207.507 148.172,209.769 145.910,210.232 145.910 C 210.427 145.910,210.587 145.679,210.587 145.397 C 210.587 145.115,211.020 144.653,211.550 144.370 C 212.079 144.086,212.512 143.624,212.512 143.342 C 212.512 143.060,212.772 142.830,213.090 142.830 C 213.419 142.830,213.667 142.483,213.667 142.023 C 213.667 141.528,214.786 140.111,216.554 138.365 C 218.142 136.798,219.442 135.342,219.442 135.130 C 219.442 134.918,219.602 134.745,219.798 134.745 C 220.431 134.745,224.832 130.202,224.832 129.548 C 224.832 128.834,225.720 127.815,226.344 127.815 C 226.571 127.815,226.756 127.636,226.756 127.417 C 226.756 126.919,228.962 124.735,229.465 124.735 C 229.669 124.735,229.836 124.550,229.836 124.323 C 229.836 123.790,230.816 122.810,231.349 122.810 C 231.576 122.810,231.761 122.643,231.761 122.439 C 231.761 121.936,233.945 119.731,234.443 119.731 C 234.662 119.731,234.841 119.559,234.841 119.349 C 234.841 118.880,242.115 111.646,242.587 111.646 C 242.773 111.646,242.926 111.237,242.926 110.737 C 242.926 110.218,243.338 109.519,243.888 109.106 C 245.366 107.997,244.811 101.636,243.237 101.636 C 243.066 101.636,242.926 100.943,242.926 100.096 C 242.926 98.984,242.765 98.556,242.348 98.556 C 241.989 98.556,241.771 98.193,241.771 97.594 C 241.771 97.064,241.598 96.631,241.386 96.631 C 241.174 96.631,241.001 96.193,241.001 95.657 C 241.001 95.121,240.741 94.583,240.423 94.461 C 240.106 94.339,239.846 93.825,239.846 93.318 C 239.846 92.811,239.673 92.397,239.461 92.397 C 239.249 92.397,239.076 92.045,239.076 91.614 C 239.076 91.184,238.816 90.733,238.499 90.611 C 238.181 90.489,237.921 90.056,237.921 89.648 C 237.921 89.241,237.661 88.808,237.344 88.686 C 237.014 88.560,236.766 87.985,236.766 87.351 C 236.766 86.738,236.593 86.237,236.381 86.237 C 236.169 86.237,235.996 85.712,235.996 85.070 C 235.996 84.388,235.756 83.811,235.419 83.681 C 235.101 83.559,234.841 83.039,234.841 82.526 C 234.841 82.013,234.581 81.493,234.264 81.371 C 233.946 81.249,233.686 80.735,233.686 80.228 C 233.686 79.722,233.513 79.307,233.301 79.307 C 233.090 79.307,232.916 78.614,232.916 77.767 C 232.916 76.655,232.756 76.227,232.339 76.227 C 231.985 76.227,231.761 75.867,231.761 75.297 C 231.761 74.785,231.580 74.306,231.359 74.232 C 231.138 74.159,230.928 73.711,230.892 73.238 C 230.857 72.765,230.604 72.377,230.332 72.377 C 230.058 72.377,229.836 71.941,229.836 71.403 C 229.836 70.867,229.577 70.328,229.259 70.207 C 228.941 70.085,228.681 69.570,228.681 69.064 C 228.681 68.557,228.508 68.142,228.296 68.142 C 228.085 68.142,227.911 67.644,227.911 67.035 C 227.911 66.425,227.652 65.711,227.334 65.448 C 227.016 65.184,226.756 64.638,226.756 64.233 C 226.756 63.829,226.497 63.399,226.179 63.277 C 225.861 63.155,225.602 62.641,225.602 62.134 C 225.602 61.627,225.428 61.213,225.217 61.213 C 225.005 61.213,224.832 60.601,224.832 59.853 C 224.832 59.000,224.617 58.411,224.254 58.272 C 223.936 58.150,223.677 57.636,223.677 57.129 C 223.677 56.622,223.503 56.208,223.292 56.208 C 223.080 56.208,222.907 55.874,222.907 55.465 C 222.907 55.057,222.647 54.463,222.329 54.145 C 222.012 53.828,221.752 53.290,221.752 52.951 C 221.752 52.612,221.492 52.234,221.174 52.112 C 220.798 51.968,220.597 51.369,220.597 50.392 C 220.597 49.568,220.442 48.893,220.253 48.893 C 220.065 48.893,219.802 48.460,219.669 47.931 C 219.536 47.401,219.257 46.968,219.049 46.968 C 218.842 46.968,218.672 46.535,218.672 46.006 C 218.672 45.407,218.454 45.043,218.094 45.043 C 217.735 45.043,217.517 44.680,217.517 44.081 C 217.517 43.551,217.344 43.118,217.132 43.118 C 216.920 43.118,216.747 42.507,216.747 41.759 C 216.747 40.906,216.532 40.317,216.169 40.178 C 215.852 40.056,215.592 39.576,215.592 39.112 C 215.592 38.647,215.425 38.100,215.220 37.896 C 215.015 37.691,214.805 36.963,214.753 36.279 C 214.699 35.569,214.445 35.034,214.163 35.034 C 213.889 35.034,213.667 34.597,213.667 34.059 C 213.667 33.523,213.407 32.985,213.090 32.863 C 212.736 32.727,212.512 32.144,212.512 31.358 C 212.512 30.652,212.339 29.967,212.127 29.836 C 211.915 29.706,211.742 29.257,211.742 28.839 C 211.742 28.421,211.482 27.980,211.165 27.858 C 210.847 27.736,210.587 27.222,210.587 26.715 C 210.587 26.153,210.362 25.794,210.010 25.794 C 209.593 25.794,209.432 25.366,209.432 24.254 C 209.432 23.407,209.259 22.714,209.047 22.714 C 208.835 22.714,208.662 22.281,208.662 21.752 C 208.662 21.153,208.444 20.789,208.085 20.789 C 207.731 20.789,207.507 20.429,207.507 19.859 C 207.507 19.347,207.342 18.871,207.139 18.800 C 206.937 18.730,206.728 18.022,206.675 17.228 C 206.617 16.352,206.384 15.784,206.081 15.784 C 205.756 15.784,205.582 15.249,205.582 14.244 C 205.582 13.132,205.422 12.705,205.005 12.705 C 204.645 12.705,204.427 12.341,204.427 11.742 C 204.427 11.213,204.254 10.780,204.042 10.780 C 203.831 10.780,203.657 10.087,203.657 9.240 C 203.657 8.127,203.497 7.700,203.080 7.700 C 202.724 7.700,202.502 7.338,202.502 6.756 C 202.502 6.238,202.262 5.675,201.968 5.505 C 201.674 5.336,201.369 4.853,201.290 4.432 C 201.112 3.486,199.889 3.188,199.573 4.014 M93.936 104.139 C 93.517 104.644,89.354 104.716,60.756 104.716 L 28.055 104.716 28.176 105.967 L 28.296 107.218 32.820 107.327 C 35.406 107.389,37.344 107.595,37.344 107.808 C 37.344 108.029,39.363 108.181,42.307 108.181 C 46.364 108.181,47.311 108.286,47.492 108.758 C 47.677 109.239,48.774 109.336,54.056 109.336 C 57.868 109.336,60.492 109.489,60.635 109.721 C 60.768 109.935,62.550 110.106,64.659 110.106 C 67.669 110.106,68.490 110.224,68.667 110.683 C 68.843 111.144,69.674 111.261,72.762 111.261 C 75.851 111.261,76.681 111.378,76.858 111.838 C 77.032 112.292,77.815 112.416,80.503 112.416 C 82.529 112.416,83.927 112.573,83.927 112.801 C 83.927 113.023,85.150 113.186,86.826 113.186 C 89.048 113.186,89.778 113.321,89.947 113.763 C 90.116 114.202,90.832 114.341,92.938 114.341 C 94.593 114.341,95.895 114.528,96.174 114.807 C 96.430 115.064,97.332 115.224,98.177 115.163 C 99.293 115.082,99.776 115.218,99.946 115.659 C 100.081 116.012,100.631 116.266,101.261 116.266 C 102.323 116.266,104.784 117.332,105.037 117.902 C 105.107 118.061,105.455 118.191,105.808 118.191 C 106.547 118.191,140.520 152.014,140.520 152.749 C 140.520 153.015,143.638 156.347,147.449 160.154 C 151.261 163.961,154.379 167.296,154.379 167.565 C 154.379 167.835,157.151 170.823,160.539 174.206 C 163.927 177.589,166.701 180.619,166.704 180.939 C 166.707 181.259,168.786 183.585,171.324 186.109 C 173.871 188.641,175.938 191.013,175.938 191.403 C 175.938 191.790,176.112 192.108,176.323 192.108 C 177.763 192.108,175.564 194.662,165.362 204.841 C 159.121 211.068,153.790 216.164,153.516 216.166 C 152.781 216.171,151.178 217.779,151.457 218.231 C 151.699 218.621,151.093 219.171,150.286 219.294 C 149.601 219.398,105.871 263.319,105.871 263.903 C 105.871 265.131,91.537 278.730,90.243 278.730 C 89.478 278.730,88.926 278.959,88.781 279.338 C 88.607 279.791,88.254 279.881,87.392 279.692 C 86.529 279.503,86.177 279.593,86.003 280.046 C 85.834 280.487,85.246 280.654,83.874 280.654 C 82.485 280.654,81.914 280.821,81.740 281.275 C 81.542 281.791,81.120 281.853,79.245 281.640 C 77.401 281.432,76.946 281.494,76.759 281.982 C 76.585 282.436,75.937 282.579,74.069 282.579 C 72.137 282.579,71.607 282.704,71.607 283.157 C 71.607 283.633,70.906 283.734,67.606 283.734 C 64.439 283.734,63.560 283.852,63.388 284.301 C 63.210 284.764,62.597 284.824,60.027 284.625 C 57.338 284.418,56.832 284.475,56.527 285.021 C 56.238 285.537,55.545 285.659,52.904 285.659 C 50.245 285.659,49.594 285.775,49.399 286.285 C 49.192 286.823,48.711 286.874,45.942 286.649 C 43.228 286.429,42.689 286.482,42.495 286.986 C 42.312 287.465,41.581 287.584,38.830 287.584 C 36.131 287.584,35.347 287.708,35.173 288.162 C 34.996 288.624,34.152 288.739,30.950 288.739 C 27.644 288.739,26.949 288.840,26.949 289.319 C 26.949 289.812,26.387 289.861,23.161 289.650 C 19.861 289.433,19.342 289.483,19.131 290.033 C 18.928 290.560,18.250 290.664,15.014 290.664 C 11.926 290.664,11.095 290.781,10.919 291.242 C 10.797 291.559,10.379 291.819,9.991 291.819 C 9.058 291.819,8.617 292.580,9.287 293.038 C 9.605 293.255,12.837 293.300,17.380 293.149 C 24.030 292.928,24.984 292.971,25.282 293.504 C 25.740 294.322,125.505 294.657,125.505 293.840 C 125.505 293.576,125.682 293.359,125.897 293.359 C 126.393 293.359,141.675 278.055,141.675 277.558 C 141.675 277.356,141.854 277.190,142.073 277.190 C 142.567 277.190,149.759 269.964,149.759 269.467 C 149.759 269.268,149.946 269.105,150.174 269.105 C 150.713 269.105,152.839 266.978,152.839 266.440 C 152.839 266.212,153.009 266.025,153.216 266.025 C 153.730 266.025,157.844 261.941,157.844 261.430 C 157.844 261.205,158.031 261.020,158.259 261.020 C 158.797 261.020,160.924 258.894,160.924 258.355 C 160.924 258.127,161.110 257.940,161.336 257.940 C 161.869 257.940,162.849 256.961,162.849 256.428 C 162.849 256.201,163.109 256.015,163.426 256.015 C 163.744 256.015,164.004 255.744,164.004 255.412 C 164.004 254.983,164.227 254.879,164.776 255.054 C 165.289 255.216,165.625 255.096,165.779 254.694 C 165.907 254.362,166.252 254.090,166.547 254.090 C 166.842 254.090,167.084 253.736,167.084 253.302 C 167.084 252.869,167.517 252.112,168.046 251.622 C 168.576 251.131,169.009 250.533,169.009 250.293 C 169.009 250.052,169.194 249.856,169.421 249.856 C 169.954 249.856,170.934 248.876,170.934 248.343 C 170.934 248.116,171.193 247.931,171.511 247.931 C 171.829 247.931,172.089 247.659,172.089 247.327 C 172.089 246.899,172.312 246.795,172.860 246.969 C 173.373 247.132,173.710 247.011,173.864 246.610 C 173.992 246.278,174.337 246.006,174.632 246.006 C 174.927 246.006,175.168 245.814,175.168 245.580 C 175.168 245.346,175.602 244.813,176.131 244.397 C 176.685 243.961,177.093 243.244,177.093 242.705 C 177.093 242.191,177.272 241.771,177.491 241.771 C 177.894 241.771,180.173 239.609,180.173 239.228 C 180.173 238.676,181.381 237.921,182.263 237.921 C 182.886 237.921,183.253 237.707,183.253 237.344 C 183.253 237.026,183.484 236.766,183.766 236.766 C 184.047 236.766,184.510 236.333,184.793 235.804 C 185.076 235.274,185.539 234.841,185.821 234.841 C 186.102 234.841,186.333 234.486,186.333 234.053 C 186.333 233.619,186.766 232.863,187.295 232.373 C 187.825 231.882,188.258 231.384,188.258 231.266 C 188.258 230.730,190.701 228.681,191.339 228.681 C 191.731 228.681,192.393 228.248,192.809 227.719 C 193.225 227.190,193.758 226.756,193.992 226.756 C 194.226 226.756,194.418 226.526,194.418 226.244 C 194.418 225.962,194.851 225.500,195.380 225.217 C 195.910 224.933,196.343 224.368,196.343 223.961 C 196.343 223.555,196.949 222.513,197.690 221.647 C 198.431 220.782,199.038 219.931,199.038 219.757 C 199.038 217.919,205.938 222.337,205.976 224.200 C 205.989 224.808,209.367 228.296,209.944 228.296 C 210.576 228.296,215.207 232.802,215.207 233.417 C 215.207 234.059,218.647 237.536,219.283 237.536 C 219.903 237.536,224.062 241.725,224.062 242.350 C 224.062 242.926,227.937 246.776,228.516 246.776 C 229.117 246.776,234.456 252.096,234.456 252.694 C 234.456 253.282,236.062 254.860,236.659 254.860 C 236.891 254.860,245.907 263.696,256.695 274.495 L 276.311 294.129 325.996 294.129 C 363.062 294.129,375.719 294.017,375.829 293.687 C 375.935 293.369,378.278 293.268,384.169 293.328 L 392.361 293.411 392.234 292.519 C 392.152 291.936,391.807 291.584,391.242 291.504 C 390.765 291.436,390.375 291.219,390.375 291.022 C 390.375 290.824,388.570 290.664,386.333 290.664 C 382.996 290.664,382.291 290.563,382.291 290.087 C 382.291 289.610,381.585 289.509,378.248 289.509 C 375.051 289.509,374.206 289.397,374.206 288.973 C 374.206 288.536,373.460 288.475,370.164 288.643 C 366.586 288.826,366.121 288.777,366.121 288.217 C 366.121 287.674,365.600 287.584,362.464 287.584 C 359.470 287.584,358.807 287.480,358.807 287.007 C 358.807 286.537,358.168 286.429,355.374 286.429 C 353.146 286.429,351.890 286.275,351.795 285.990 C 351.697 285.698,350.524 285.576,348.298 285.625 C 345.495 285.687,344.947 285.601,344.947 285.102 C 344.947 284.604,344.342 284.504,341.331 284.504 C 338.336 284.504,337.673 284.396,337.473 283.873 C 337.262 283.325,336.753 283.275,333.571 283.493 C 330.504 283.702,329.876 283.649,329.689 283.161 C 329.522 282.726,328.845 282.579,327.004 282.579 C 325.073 282.579,324.543 282.455,324.543 282.002 C 324.543 281.548,324.008 281.424,322.040 281.424 C 320.048 281.424,319.538 281.304,319.538 280.834 C 319.538 280.347,319.198 280.288,317.613 280.498 C 315.987 280.714,315.688 280.656,315.688 280.127 C 315.688 279.652,315.315 279.500,314.148 279.500 C 313.036 279.500,312.608 279.339,312.608 278.922 C 312.608 278.517,312.199 278.345,311.237 278.345 C 309.910 278.345,304.524 273.692,304.524 272.546 C 304.524 272.347,304.349 272.185,304.135 272.185 C 303.639 272.185,296.439 264.968,296.439 264.471 C 296.439 264.267,296.179 264.100,295.861 264.100 C 295.534 264.100,295.284 263.755,295.284 263.303 C 295.284 262.513,294.477 261.422,293.868 261.387 C 293.694 261.378,293.032 260.693,292.397 259.865 C 291.761 259.038,291.025 258.353,290.760 258.343 C 290.496 258.333,290.279 258.139,290.279 257.911 C 290.279 257.683,289.773 256.990,289.154 256.371 C 288.535 255.752,287.842 255.245,287.614 255.245 C 287.386 255.245,287.199 255.060,287.199 254.833 C 287.199 254.356,286.249 253.329,285.783 253.303 C 285.609 253.293,284.947 252.608,284.312 251.781 C 283.677 250.953,282.940 250.268,282.676 250.258 C 282.411 250.249,282.194 250.054,282.194 249.826 C 282.194 249.598,281.688 248.905,281.069 248.286 C 280.450 247.667,279.757 247.161,279.529 247.161 C 279.301 247.161,279.115 246.975,279.115 246.748 C 279.115 246.271,278.164 245.244,277.698 245.218 C 277.524 245.208,276.862 244.523,276.227 243.696 C 275.592 242.869,274.856 242.184,274.591 242.174 C 274.326 242.164,274.110 241.969,274.110 241.741 C 274.110 241.513,273.603 240.820,272.984 240.201 C 272.365 239.582,271.672 239.076,271.444 239.076 C 271.216 239.076,271.030 238.890,271.030 238.664 C 271.030 238.187,270.079 237.160,269.614 237.133 C 269.440 237.123,268.778 236.439,268.142 235.611 C 267.507 234.784,266.771 234.099,266.506 234.089 C 266.242 234.079,266.025 233.885,266.025 233.657 C 266.025 233.429,265.519 232.736,264.900 232.117 C 264.281 231.498,263.588 230.991,263.360 230.991 C 263.132 230.991,262.945 230.806,262.945 230.579 C 262.945 230.102,261.995 229.075,261.529 229.049 C 261.355 229.039,260.693 228.354,260.058 227.526 C 259.423 226.699,258.686 226.014,258.422 226.004 C 258.157 225.995,257.940 225.800,257.940 225.572 C 257.940 225.344,257.434 224.651,256.815 224.032 C 256.196 223.413,255.503 222.907,255.275 222.907 C 255.047 222.907,254.860 222.721,254.860 222.494 C 254.860 222.267,254.613 221.834,254.310 221.532 C 254.008 221.229,253.575 220.982,253.348 220.982 C 253.121 220.982,252.936 220.793,252.936 220.562 C 252.936 219.958,251.322 218.700,250.529 218.685 C 250.112 218.677,249.856 218.373,249.856 217.886 C 249.856 216.826,248.570 215.510,247.685 215.661 C 247.270 215.733,247.009 215.582,247.064 215.303 C 247.117 215.038,246.987 214.822,246.774 214.822 C 246.383 214.822,239.846 208.427,239.846 208.044 C 239.846 207.767,238.804 206.737,238.524 206.737 C 238.244 206.737,231.761 200.240,231.761 199.960 C 231.761 199.685,230.721 198.653,230.444 198.653 C 230.056 198.653,224.832 193.280,224.832 192.880 C 224.832 192.667,225.005 192.493,225.217 192.493 C 225.428 192.493,225.602 192.141,225.602 191.711 C 225.602 191.223,227.338 189.207,230.221 186.349 C 232.762 183.829,234.841 181.500,234.841 181.172 C 234.841 180.525,238.852 176.323,239.469 176.323 C 239.677 176.323,239.846 176.163,239.846 175.968 C 239.846 175.506,242.108 173.244,242.571 173.244 C 242.766 173.244,242.926 173.055,242.926 172.824 C 242.926 172.593,243.880 171.522,245.047 170.444 C 246.583 169.025,247.107 168.290,246.946 167.784 C 246.824 167.399,246.895 167.084,247.105 167.084 C 247.587 167.084,249.856 164.836,249.856 164.359 C 249.856 164.164,250.041 164.004,250.268 164.004 C 250.801 164.004,251.781 163.024,251.781 162.491 C 251.781 162.265,252.040 162.079,252.358 162.079 C 252.676 162.079,252.936 161.819,252.936 161.501 C 252.936 161.184,253.121 160.924,253.348 160.924 C 253.881 160.924,254.860 159.945,254.860 159.412 C 254.860 159.185,255.020 158.999,255.216 158.999 C 255.678 158.999,257.940 156.737,257.940 156.275 C 257.940 156.079,258.112 155.919,258.321 155.919 C 258.912 155.919,260.234 154.664,260.015 154.311 C 259.908 154.137,260.090 153.994,260.420 153.994 C 260.758 153.994,261.020 153.667,261.020 153.246 C 261.020 152.774,267.131 146.376,277.575 135.913 C 286.679 126.791,294.129 119.159,294.129 118.952 C 294.129 118.745,294.544 118.576,295.050 118.576 C 295.557 118.576,296.071 118.316,296.193 117.998 C 296.315 117.680,296.772 117.421,297.209 117.421 C 297.646 117.421,298.103 117.161,298.225 116.843 C 298.361 116.487,298.946 116.266,299.752 116.266 C 300.471 116.266,301.059 116.092,301.059 115.881 C 301.059 115.669,301.930 115.496,302.996 115.496 C 304.362 115.496,304.998 115.326,305.154 114.918 C 305.323 114.478,306.043 114.341,308.181 114.341 C 310.427 114.341,311.034 114.215,311.228 113.709 C 311.435 113.171,311.874 113.114,314.168 113.327 C 316.377 113.533,316.905 113.473,317.087 112.997 C 317.263 112.539,318.038 112.416,320.746 112.416 C 323.445 112.416,324.230 112.292,324.404 111.838 C 324.580 111.379,325.405 111.261,328.446 111.261 C 331.467 111.261,332.313 111.141,332.486 110.690 C 332.667 110.218,333.348 110.159,336.457 110.350 C 339.695 110.549,340.243 110.495,340.449 109.958 C 340.656 109.420,341.547 109.336,347.064 109.336 C 352.377 109.336,353.478 109.240,353.663 108.758 C 353.844 108.286,354.791 108.181,358.848 108.181 C 362.130 108.181,363.811 108.041,363.811 107.767 C 363.811 107.490,365.305 107.386,368.335 107.453 L 372.859 107.552 372.978 106.134 L 373.097 104.716 340.392 104.716 C 311.675 104.716,307.659 104.646,307.464 104.139 C 307.271 103.635,304.436 103.561,285.178 103.561 L 263.113 103.561 261.525 105.390 C 260.652 106.396,256.023 111.136,251.239 115.925 C 246.455 120.713,242.541 124.884,242.541 125.194 C 242.541 125.917,240.937 127.430,240.170 127.430 C 239.455 127.430,238.308 128.630,238.301 129.385 C 238.297 129.686,235.352 132.875,231.756 136.471 C 228.159 140.068,225.217 143.240,225.217 143.522 C 225.217 143.804,222.271 146.952,218.672 150.518 C 215.072 154.084,212.127 157.237,212.127 157.524 C 212.127 157.811,209.485 160.684,206.256 163.908 L 200.385 169.769 199.615 168.620 C 199.192 167.988,198.715 167.470,198.556 167.470 C 198.397 167.469,198.268 167.279,198.268 167.047 C 198.268 166.814,196.968 165.342,195.380 163.774 C 193.792 162.207,192.493 160.751,192.493 160.539 C 192.493 160.327,192.233 160.154,191.915 160.154 C 191.598 160.154,191.338 159.894,191.338 159.577 C 191.338 159.259,191.068 158.999,190.738 158.999 C 190.408 158.999,190.244 158.826,190.375 158.614 C 190.506 158.402,190.343 158.229,190.013 158.229 C 189.630 158.229,189.413 157.882,189.413 157.267 C 189.413 156.668,189.195 156.304,188.835 156.304 C 188.518 156.304,188.258 156.137,188.258 155.932 C 188.258 155.429,186.074 153.224,185.576 153.224 C 185.357 153.224,185.178 153.040,185.178 152.814 C 185.178 152.303,181.064 148.219,180.550 148.219 C 180.343 148.219,180.173 148.033,180.173 147.805 C 180.173 147.266,178.047 145.140,177.508 145.140 C 177.280 145.140,177.093 144.694,177.093 144.150 C 177.093 143.134,176.316 142.060,175.581 142.060 C 175.354 142.060,175.168 141.829,175.168 141.547 C 175.168 141.265,174.735 140.803,174.206 140.520 C 173.677 140.236,173.244 139.774,173.244 139.492 C 173.244 139.210,173.084 138.980,172.888 138.980 C 172.426 138.980,170.164 136.718,170.164 136.255 C 170.164 136.060,169.904 135.900,169.586 135.900 C 169.269 135.900,169.009 135.714,169.009 135.487 C 169.009 134.954,168.029 133.975,167.496 133.975 C 167.269 133.975,167.084 133.744,167.084 133.463 C 167.084 133.181,166.651 132.718,166.121 132.435 C 165.592 132.152,165.159 131.689,165.159 131.408 C 165.159 131.126,164.961 130.895,164.720 130.895 C 164.163 130.895,163.264 129.727,163.239 128.970 C 163.211 128.112,161.399 126.544,160.731 126.800 C 160.334 126.952,160.154 126.775,160.154 126.232 C 160.154 125.418,150.951 115.881,150.166 115.881 C 149.942 115.881,149.800 115.751,149.849 115.592 C 149.898 115.433,148.858 114.199,147.539 112.849 C 146.219 111.499,145.140 110.243,145.140 110.058 C 145.140 109.872,144.958 109.721,144.736 109.721 C 144.514 109.721,143.931 109.288,143.441 108.758 C 142.950 108.229,142.352 107.796,142.112 107.796 C 141.871 107.796,141.675 107.629,141.675 107.426 C 141.675 107.222,140.911 106.269,139.977 105.308 L 138.278 103.561 116.347 103.561 C 97.322 103.561,94.352 103.638,93.936 104.139 M130.895 158.807 C 130.895 159.124,130.722 159.384,130.510 159.384 C 130.298 159.384,130.125 159.807,130.125 160.324 C 130.125 160.841,129.952 161.371,129.740 161.501 C 129.528 161.632,129.355 162.144,129.355 162.638 C 129.355 163.132,129.095 163.636,128.778 163.758 C 128.460 163.880,128.200 164.321,128.200 164.739 C 128.200 165.157,128.027 165.605,127.815 165.736 C 127.603 165.867,127.430 166.316,127.430 166.734 C 127.430 167.151,127.170 167.593,126.853 167.714 C 126.535 167.836,126.275 168.243,126.275 168.618 C 126.275 168.993,126.015 169.515,125.698 169.779 C 125.380 170.042,125.120 170.573,125.120 170.958 C 125.120 171.343,124.947 171.765,124.735 171.896 C 124.524 172.027,124.350 172.452,124.350 172.840 C 124.350 173.228,124.090 173.646,123.773 173.768 C 123.455 173.890,123.195 174.320,123.195 174.724 C 123.195 175.128,122.936 175.675,122.618 175.938 C 122.300 176.202,122.040 176.743,122.040 177.140 C 122.040 177.538,121.867 177.863,121.655 177.863 C 121.444 177.863,121.270 178.278,121.270 178.785 C 121.270 179.291,121.011 179.806,120.693 179.927 C 120.375 180.049,120.115 180.491,120.115 180.908 C 120.115 181.326,119.942 181.775,119.731 181.906 C 119.519 182.037,119.346 182.485,119.346 182.903 C 119.346 183.321,119.086 183.762,118.768 183.884 C 118.450 184.006,118.191 184.412,118.191 184.787 C 118.191 185.162,117.931 185.684,117.613 185.948 C 117.295 186.212,117.036 186.742,117.036 187.127 C 117.036 187.512,116.862 187.935,116.651 188.065 C 116.439 188.196,116.266 188.621,116.266 189.009 C 116.266 189.398,116.006 189.815,115.688 189.937 C 115.371 190.059,115.111 190.489,115.111 190.894 C 115.111 191.298,114.851 191.844,114.533 192.108 C 114.216 192.371,113.956 192.912,113.956 193.310 C 113.956 193.707,113.782 194.033,113.571 194.033 C 113.359 194.033,113.186 194.447,113.186 194.954 C 113.186 195.461,112.926 195.975,112.608 196.097 C 112.291 196.219,112.031 196.660,112.031 197.078 C 112.031 197.495,111.858 197.944,111.646 198.075 C 111.434 198.206,111.261 198.655,111.261 199.072 C 111.261 199.490,111.001 199.931,110.683 200.053 C 110.366 200.175,110.106 200.582,110.106 200.957 C 110.106 201.331,109.846 201.854,109.528 202.117 C 109.211 202.381,108.951 202.912,108.951 203.297 C 108.951 203.682,108.778 204.104,108.566 204.235 C 108.354 204.366,108.181 204.791,108.181 205.179 C 108.181 205.567,107.921 205.985,107.603 206.106 C 107.286 206.228,107.026 206.659,107.026 207.063 C 107.026 207.467,106.766 208.014,106.449 208.277 C 106.131 208.541,105.871 209.082,105.871 209.479 C 105.871 209.877,105.698 210.202,105.486 210.202 C 105.274 210.202,105.101 210.617,105.101 211.123 C 105.101 211.630,104.841 212.144,104.524 212.266 C 104.206 212.388,103.946 212.830,103.946 213.247 C 103.946 213.665,103.773 214.114,103.561 214.244 C 103.349 214.375,103.176 214.824,103.176 215.242 C 103.176 215.659,102.916 216.101,102.599 216.223 C 102.281 216.345,102.021 216.751,102.021 217.126 C 102.021 217.501,101.761 218.023,101.444 218.287 C 101.126 218.550,100.866 219.081,100.866 219.466 C 100.866 219.851,100.693 220.273,100.481 220.404 C 100.269 220.535,100.096 220.900,100.096 221.215 C 100.096 221.531,99.706 222.171,99.230 222.640 C 98.227 223.625,97.016 225.795,97.016 226.607 C 97.016 226.914,96.756 227.265,96.439 227.387 C 96.121 227.509,95.861 228.023,95.861 228.530 C 95.861 229.037,95.688 229.451,95.476 229.451 C 95.265 229.451,95.091 229.777,95.091 230.174 C 95.091 230.572,94.832 231.113,94.514 231.376 C 94.196 231.640,93.936 232.333,93.936 232.916 C 93.936 233.500,93.677 234.193,93.359 234.456 C 93.041 234.720,92.782 235.248,92.782 235.630 C 92.782 236.013,92.348 236.666,91.819 237.082 C 91.290 237.499,90.857 238.186,90.857 238.609 C 90.857 239.032,90.600 239.477,90.286 239.598 C 89.972 239.718,89.806 240.056,89.918 240.347 C 90.030 240.639,89.854 241.100,89.527 241.371 C 89.199 241.643,88.932 242.196,88.932 242.600 C 88.932 243.004,88.672 243.435,88.354 243.557 C 88.037 243.679,87.777 244.193,87.777 244.700 C 87.777 245.206,87.603 245.621,87.392 245.621 C 87.180 245.621,87.007 245.946,87.007 246.344 C 87.007 246.741,86.747 247.282,86.429 247.546 C 86.112 247.809,85.852 248.356,85.852 248.760 C 85.852 249.164,85.592 249.595,85.274 249.716 C 84.957 249.838,84.697 250.256,84.697 250.644 C 84.697 251.032,84.524 251.457,84.312 251.588 C 84.100 251.719,83.927 252.168,83.927 252.585 C 83.927 253.003,83.667 253.444,83.349 253.566 C 83.032 253.688,82.772 254.184,82.772 254.668 C 82.772 255.152,82.515 255.647,82.201 255.767 C 81.887 255.888,81.718 256.216,81.826 256.497 C 81.934 256.778,81.498 257.510,80.857 258.123 C 80.216 258.737,79.692 259.553,79.692 259.937 C 79.692 260.321,79.519 260.635,79.307 260.635 C 79.095 260.635,78.922 260.961,78.922 261.358 C 78.922 261.756,78.662 262.297,78.345 262.560 C 78.027 262.824,77.767 263.343,77.767 263.715 C 77.767 264.087,77.507 264.606,77.190 264.870 C 76.872 265.134,76.612 265.675,76.612 266.072 C 76.612 266.470,76.439 266.795,76.227 266.795 C 76.015 266.795,75.842 267.120,75.842 267.518 C 75.842 267.915,75.574 268.464,75.245 268.736 C 73.798 269.937,74.687 271.980,76.712 272.110 C 78.092 272.198,78.602 272.079,78.775 271.629 C 78.938 271.202,79.535 271.030,80.847 271.030 C 82.092 271.030,82.758 270.851,82.901 270.478 C 83.065 270.052,83.600 269.976,85.252 270.147 C 87.319 270.360,87.392 270.336,87.392 269.437 C 87.392 268.265,89.399 266.025,90.450 266.025 C 90.885 266.025,91.242 265.852,91.242 265.640 C 91.242 265.428,91.501 265.255,91.819 265.255 C 92.152 265.255,92.397 264.907,92.397 264.433 C 92.397 263.981,92.830 263.210,93.359 262.719 C 93.888 262.228,94.321 261.675,94.321 261.489 C 94.321 261.303,94.755 260.919,95.284 260.635 C 95.813 260.352,96.246 259.890,96.246 259.608 C 96.246 259.326,96.506 259.095,96.824 259.095 C 97.141 259.095,97.401 258.935,97.401 258.740 C 97.401 258.385,99.614 256.015,99.946 256.015 C 100.247 256.015,102.406 253.696,102.406 253.372 C 102.406 253.204,102.839 252.834,103.369 252.551 C 103.898 252.267,104.331 251.805,104.331 251.523 C 104.331 251.241,104.591 251.011,104.909 251.011 C 105.226 251.011,105.486 250.851,105.486 250.655 C 105.486 250.300,107.699 247.931,108.031 247.931 C 108.332 247.931,110.491 245.611,110.491 245.288 C 110.491 245.119,110.924 244.749,111.453 244.466 C 111.983 244.183,112.416 243.720,112.416 243.438 C 112.416 243.156,112.676 242.926,112.993 242.926 C 113.311 242.926,113.571 242.766,113.571 242.571 C 113.571 242.215,115.784 239.846,116.116 239.846 C 116.451 239.846,118.576 237.507,118.576 237.138 C 118.576 236.933,118.761 236.766,118.988 236.766 C 119.521 236.766,120.500 235.787,120.500 235.254 C 120.500 235.027,120.760 234.841,121.078 234.841 C 121.396 234.841,121.655 234.681,121.655 234.486 C 121.655 234.121,123.873 231.761,124.215 231.761 C 124.569 231.761,125.505 230.664,125.505 230.249 C 125.505 230.022,125.765 229.836,126.083 229.836 C 126.400 229.836,126.660 229.577,126.660 229.259 C 126.660 228.941,126.846 228.681,127.073 228.681 C 127.606 228.681,128.585 227.702,128.585 227.169 C 128.585 226.942,128.845 226.756,129.163 226.756 C 129.480 226.756,129.740 226.597,129.740 226.401 C 129.740 225.976,131.985 223.677,132.400 223.677 C 132.559 223.677,132.922 223.244,133.205 222.714 C 133.488 222.185,133.951 221.752,134.233 221.752 C 134.514 221.752,134.745 221.492,134.745 221.174 C 134.745 220.857,134.931 220.597,135.157 220.597 C 135.690 220.597,136.670 219.617,136.670 219.084 C 136.670 218.857,136.930 218.672,137.247 218.672 C 137.565 218.672,137.825 218.441,137.825 218.159 C 137.825 217.878,138.258 217.415,138.787 217.132 C 139.317 216.849,139.750 216.386,139.750 216.104 C 139.750 215.823,139.980 215.592,140.262 215.592 C 140.544 215.592,141.006 215.159,141.290 214.629 C 141.573 214.100,142.035 213.667,142.317 213.667 C 142.599 213.667,142.830 213.407,142.830 213.090 C 142.830 212.772,143.015 212.512,143.242 212.512 C 143.775 212.512,144.755 211.533,144.755 211.000 C 144.755 210.773,145.014 210.587,145.332 210.587 C 145.650 210.587,145.910 210.357,145.910 210.075 C 145.910 209.793,146.343 209.330,146.872 209.047 C 147.401 208.764,147.834 208.301,147.834 208.020 C 147.834 207.738,148.065 207.507,148.347 207.507 C 148.629 207.507,149.091 207.074,149.374 206.545 C 149.658 206.015,150.120 205.582,150.402 205.582 C 150.684 205.582,150.914 205.322,150.914 205.005 C 150.914 204.687,151.100 204.427,151.327 204.427 C 151.860 204.427,152.839 203.448,152.839 202.915 C 152.839 202.688,153.099 202.502,153.417 202.502 C 153.734 202.502,153.994 202.272,153.994 201.990 C 153.994 201.708,154.427 201.246,154.957 200.962 C 155.486 200.679,155.919 200.317,155.919 200.157 C 155.919 199.742,158.219 197.498,158.644 197.498 C 158.839 197.498,158.999 197.267,158.999 196.985 C 158.999 196.703,159.432 196.241,159.962 195.958 C 160.491 195.674,160.924 195.212,160.924 194.930 C 160.924 194.648,161.095 194.418,161.305 194.418 C 161.514 194.418,162.034 194.119,162.460 193.755 C 163.404 192.946,163.551 190.568,162.656 190.568 C 162.339 190.568,162.079 190.308,162.079 189.990 C 162.079 189.673,161.904 189.413,161.691 189.413 C 160.963 189.413,155.919 184.028,155.919 183.250 C 155.919 182.740,155.662 182.483,155.149 182.483 C 154.240 182.483,152.839 181.193,152.839 180.355 C 152.839 179.694,142.699 169.394,142.047 169.394 C 141.817 169.394,141.737 169.219,141.869 169.006 C 142.001 168.793,141.838 168.514,141.507 168.387 C 141.176 168.260,140.905 167.742,140.905 167.235 C 140.905 166.673,140.680 166.314,140.327 166.314 C 140.010 166.314,139.750 166.128,139.750 165.901 C 139.750 165.674,139.502 165.241,139.200 164.939 C 138.897 164.636,138.464 164.389,138.237 164.389 C 138.010 164.389,137.817 164.172,137.807 163.908 C 137.797 163.643,137.112 162.907,136.285 162.271 C 135.458 161.636,134.773 160.992,134.763 160.841 C 134.673 159.450,130.895 157.463,130.895 158.807 M268.335 158.610 C 268.335 159.164,267.376 160.292,263.811 163.932 C 262.064 165.716,260.635 167.413,260.635 167.703 C 260.635 167.993,258.123 170.708,255.053 173.737 C 251.983 176.766,249.471 179.498,249.471 179.810 C 249.471 180.121,246.959 182.883,243.888 185.948 C 240.818 189.013,238.306 191.713,238.306 191.949 C 238.306 192.185,254.244 208.326,273.725 227.820 C 293.205 247.313,309.143 263.510,309.143 263.814 C 309.143 264.494,310.357 265.636,311.099 265.652 C 311.849 265.669,314.042 267.967,314.210 268.912 C 314.321 269.535,314.701 269.705,316.193 269.801 C 317.360 269.875,318.117 270.123,318.252 270.474 C 318.397 270.851,319.058 271.030,320.308 271.030 C 321.591 271.030,322.218 271.205,322.372 271.607 C 322.532 272.024,323.185 272.185,324.723 272.185 L 326.853 272.185 326.853 270.440 C 326.853 269.245,326.671 268.626,326.275 268.474 C 325.958 268.352,325.698 267.838,325.698 267.331 C 325.698 266.825,325.525 266.410,325.313 266.410 C 325.101 266.410,324.928 266.076,324.928 265.668 C 324.928 265.259,324.668 264.665,324.350 264.348 C 324.033 264.030,323.773 263.492,323.773 263.153 C 323.773 262.814,323.513 262.436,323.195 262.314 C 322.878 262.193,322.618 261.678,322.618 261.172 C 322.618 260.665,322.463 260.250,322.275 260.250 C 322.086 260.250,321.823 259.817,321.690 259.288 C 321.557 258.758,321.278 258.325,321.071 258.325 C 320.863 258.325,320.693 258.065,320.693 257.748 C 320.693 257.430,320.433 257.170,320.115 257.170 C 319.756 257.170,319.538 256.807,319.538 256.208 C 319.538 255.679,319.365 255.245,319.153 255.245 C 318.941 255.245,318.768 254.812,318.768 254.283 C 318.768 253.684,318.550 253.321,318.191 253.321 C 317.837 253.321,317.613 252.960,317.613 252.390 C 317.613 251.878,317.445 251.402,317.239 251.331 C 317.034 251.261,316.801 250.779,316.723 250.261 C 316.644 249.743,316.379 249.252,316.134 249.170 C 315.889 249.088,315.688 248.603,315.688 248.091 C 315.688 247.521,315.465 247.161,315.111 247.161 C 314.751 247.161,314.533 246.797,314.533 246.198 C 314.533 245.669,314.360 245.236,314.148 245.236 C 313.936 245.236,313.763 244.797,313.763 244.261 C 313.763 243.725,313.503 243.187,313.186 243.065 C 312.868 242.943,312.608 242.429,312.608 241.922 C 312.608 241.360,312.383 241.001,312.031 241.001 C 311.671 241.001,311.453 240.637,311.453 240.038 C 311.453 239.509,311.280 239.076,311.068 239.076 C 310.857 239.076,310.683 238.643,310.683 238.114 C 310.683 237.515,310.465 237.151,310.106 237.151 C 309.788 237.151,309.528 236.906,309.528 236.606 C 309.528 236.306,309.347 236.000,309.126 235.926 C 308.905 235.853,308.695 235.405,308.659 234.932 C 308.624 234.458,308.372 234.071,308.099 234.071 C 307.778 234.071,307.603 233.530,307.603 232.531 C 307.603 231.419,307.443 230.991,307.026 230.991 C 306.667 230.991,306.449 230.628,306.449 230.029 C 306.449 229.500,306.275 229.066,306.064 229.066 C 305.852 229.066,305.679 228.732,305.679 228.324 C 305.679 227.916,305.419 227.322,305.101 227.004 C 304.783 226.686,304.524 226.068,304.524 225.629 C 304.524 225.177,304.274 224.832,303.946 224.832 C 303.613 224.832,303.369 224.484,303.369 224.009 C 303.369 223.557,302.936 222.786,302.406 222.295 C 301.877 221.805,301.444 221.063,301.444 220.647 C 301.444 220.231,301.263 219.831,301.042 219.757 C 300.820 219.683,300.610 219.236,300.575 218.762 C 300.539 218.289,300.287 217.902,300.014 217.902 C 299.741 217.902,299.519 217.465,299.519 216.927 C 299.519 216.391,299.259 215.853,298.941 215.731 C 298.624 215.609,298.364 215.095,298.364 214.588 C 298.364 214.082,298.191 213.667,297.979 213.667 C 297.767 213.667,297.594 213.315,297.594 212.885 C 297.594 212.455,297.334 212.003,297.016 211.881 C 296.699 211.759,296.439 211.245,296.439 210.738 C 296.439 210.176,296.214 209.817,295.861 209.817 C 295.476 209.817,295.284 209.432,295.284 208.662 C 295.284 208.027,295.111 207.507,294.899 207.507 C 294.687 207.507,294.514 207.155,294.514 206.725 C 294.514 206.295,294.254 205.843,293.936 205.722 C 293.619 205.600,293.359 205.100,293.359 204.611 C 293.359 204.122,293.178 203.661,292.957 203.587 C 292.736 203.514,292.526 203.066,292.490 202.593 C 292.454 202.120,292.202 201.732,291.930 201.732 C 291.656 201.732,291.434 201.296,291.434 200.758 C 291.434 200.222,291.174 199.684,290.857 199.562 C 290.539 199.440,290.279 198.926,290.279 198.419 C 290.279 197.912,290.106 197.498,289.894 197.498 C 289.682 197.498,289.509 197.146,289.509 196.716 C 289.509 196.285,289.249 195.834,288.932 195.712 C 288.614 195.590,288.354 195.076,288.354 194.569 C 288.354 194.007,288.129 193.648,287.777 193.648 C 287.392 193.648,287.199 193.263,287.199 192.493 C 287.199 191.858,287.026 191.338,286.814 191.338 C 286.603 191.338,286.429 190.986,286.429 190.556 C 286.429 190.126,286.169 189.674,285.852 189.552 C 285.534 189.430,285.274 188.916,285.274 188.409 C 285.274 187.903,285.120 187.488,284.931 187.488 C 284.742 187.488,284.479 187.055,284.346 186.526 C 284.213 185.996,283.935 185.563,283.727 185.563 C 283.519 185.563,283.349 185.124,283.349 184.588 C 283.349 184.052,283.090 183.514,282.772 183.392 C 282.454 183.270,282.194 182.756,282.194 182.249 C 282.194 181.743,282.021 181.328,281.809 181.328 C 281.598 181.328,281.424 180.976,281.424 180.546 C 281.424 180.116,281.165 179.664,280.847 179.542 C 280.529 179.421,280.269 178.906,280.269 178.400 C 280.269 177.837,280.044 177.478,279.692 177.478 C 279.307 177.478,279.115 177.093,279.115 176.323 C 279.115 175.688,278.941 175.168,278.730 175.168 C 278.518 175.168,278.345 174.817,278.345 174.386 C 278.345 173.956,278.085 173.505,277.767 173.383 C 277.449 173.261,277.190 172.747,277.190 172.240 C 277.190 171.733,277.035 171.319,276.846 171.319 C 276.658 171.319,276.394 170.885,276.262 170.356 C 276.129 169.827,275.850 169.394,275.642 169.394 C 275.435 169.394,275.265 168.955,275.265 168.419 C 275.265 167.883,275.005 167.345,274.687 167.223 C 274.370 167.101,274.110 166.587,274.110 166.080 C 274.110 165.573,273.936 165.159,273.725 165.159 C 273.513 165.159,273.340 164.807,273.340 164.377 C 273.340 163.947,273.080 163.495,272.762 163.373 C 272.445 163.251,272.185 162.737,272.185 162.230 C 272.185 161.668,271.960 161.309,271.607 161.309 C 271.244 161.309,271.030 160.942,271.030 160.319 C 271.030 159.775,270.782 159.082,270.480 158.779 C 269.855 158.154,268.335 158.034,268.335 158.610 M157.496 275.848 C 156.198 277.769,149.112 284.889,148.499 284.889 C 148.220 284.889,143.500 289.394,138.010 294.899 L 128.027 304.909 91.733 304.909 C 55.613 304.909,55.438 304.912,55.438 305.684 C 55.438 306.389,55.145 307.130,54.221 308.758 C 54.040 309.076,53.795 309.596,53.675 309.913 C 53.555 310.231,53.301 310.751,53.111 311.068 C 52.920 311.386,52.486 312.195,52.146 312.867 C 51.807 313.539,51.282 314.183,50.981 314.299 C 50.680 314.414,50.433 314.851,50.433 315.268 C 50.433 315.686,50.260 316.135,50.048 316.266 C 49.836 316.397,49.663 316.845,49.663 317.263 C 49.663 317.681,49.403 318.122,49.086 318.244 C 48.768 318.366,48.508 318.772,48.508 319.147 C 48.508 319.522,48.248 320.044,47.931 320.308 C 47.613 320.572,47.353 321.102,47.353 321.487 C 47.353 321.872,47.180 322.295,46.968 322.425 C 46.756 322.556,46.583 323.005,46.583 323.423 C 46.583 323.840,46.323 324.282,46.006 324.404 C 45.688 324.525,45.428 324.932,45.428 325.307 C 45.428 325.682,45.168 326.204,44.851 326.468 C 44.533 326.731,44.273 327.209,44.273 327.529 C 44.273 327.850,43.840 328.513,43.311 329.004 C 42.782 329.494,42.348 330.251,42.348 330.684 C 42.348 331.118,42.175 331.473,41.963 331.473 C 41.752 331.473,41.578 331.798,41.578 332.195 C 41.578 332.593,41.319 333.134,41.001 333.397 C 40.683 333.661,40.423 334.192,40.423 334.577 C 40.423 334.962,40.261 335.377,40.063 335.500 C 39.606 335.782,38.499 337.982,38.499 338.607 C 38.499 338.866,38.239 339.294,37.921 339.557 C 37.603 339.821,37.344 340.283,37.344 340.585 C 37.344 340.887,36.910 341.535,36.381 342.026 C 35.852 342.517,35.419 343.180,35.419 343.500 C 35.419 343.821,35.159 344.298,34.841 344.562 C 34.524 344.826,34.264 345.356,34.264 345.741 C 34.264 346.127,34.090 346.549,33.879 346.679 C 33.667 346.810,33.494 347.221,33.494 347.592 C 33.494 347.963,32.974 348.651,32.339 349.121 C 31.704 349.591,31.184 350.306,31.184 350.711 C 31.184 351.115,31.011 351.553,30.799 351.684 C 30.587 351.815,30.414 352.264,30.414 352.682 C 30.414 353.099,30.154 353.541,29.836 353.663 C 29.484 353.798,29.259 354.381,29.259 355.162 C 29.259 356.067,28.978 356.662,28.296 357.198 C 27.767 357.614,27.334 358.301,27.334 358.725 C 27.334 359.148,27.074 359.594,26.756 359.716 C 26.439 359.838,26.179 360.259,26.179 360.652 C 26.179 361.046,25.746 361.774,25.217 362.271 C 24.687 362.769,24.254 363.471,24.254 363.831 C 24.254 364.192,23.994 364.703,23.677 364.966 C 23.359 365.230,23.099 365.771,23.099 366.168 C 23.099 366.566,22.926 366.891,22.714 366.891 C 22.502 366.891,22.329 367.217,22.329 367.614 C 22.329 368.012,22.069 368.553,21.752 368.816 C 21.434 369.080,21.174 369.626,21.174 370.030 C 21.174 370.435,20.914 370.865,20.597 370.987 C 20.279 371.109,20.019 371.526,20.019 371.915 C 20.019 372.303,19.846 372.728,19.634 372.859 C 19.423 372.989,19.249 373.403,19.249 373.777 C 19.249 374.151,18.816 374.864,18.287 375.361 C 17.757 375.858,17.324 376.587,17.324 376.980 C 17.324 377.373,17.064 377.795,16.747 377.917 C 16.429 378.038,16.169 378.531,16.169 379.012 C 16.169 380.089,29.901 380.769,30.529 379.723 C 30.699 379.441,31.262 379.211,31.780 379.211 C 32.299 379.211,32.724 379.025,32.724 378.798 C 32.724 377.996,33.840 377.286,35.102 377.285 C 36.080 377.284,36.555 377.024,37.119 376.183 C 37.611 375.448,38.090 375.143,38.558 375.265 C 38.976 375.374,39.356 375.197,39.498 374.827 C 39.629 374.485,40.132 374.206,40.616 374.206 C 41.100 374.206,41.600 373.934,41.728 373.602 C 41.878 373.211,42.221 373.081,42.700 373.233 C 43.251 373.408,43.619 373.167,44.133 372.297 C 44.566 371.563,45.137 371.126,45.663 371.126 C 46.124 371.126,46.607 370.848,46.738 370.509 C 46.868 370.169,47.220 369.986,47.521 370.101 C 47.821 370.216,48.274 370.061,48.527 369.756 C 48.780 369.451,49.318 369.201,49.722 369.201 C 50.127 369.201,50.557 368.941,50.679 368.624 C 50.801 368.306,51.297 368.046,51.781 368.046 C 52.265 368.046,52.755 367.800,52.871 367.499 C 52.999 367.163,53.389 367.032,53.874 367.159 C 54.434 367.305,54.668 367.183,54.668 366.744 C 54.668 366.334,55.002 366.121,55.642 366.121 C 56.178 366.121,56.717 365.861,56.839 365.544 C 56.961 365.226,57.475 364.966,57.982 364.966 C 58.488 364.966,58.903 364.793,58.903 364.581 C 58.903 364.370,59.336 364.196,59.865 364.196 C 60.464 364.196,60.828 363.978,60.828 363.619 C 60.828 363.269,61.185 363.041,61.736 363.041 C 62.256 363.041,62.954 362.629,63.368 362.079 C 63.766 361.549,64.482 361.116,64.961 361.116 C 65.479 361.116,65.833 360.882,65.833 360.539 C 65.833 360.187,66.192 359.962,66.754 359.962 C 67.261 359.962,67.774 359.705,67.894 359.391 C 68.051 358.982,68.444 358.886,69.277 359.053 C 70.143 359.226,70.502 359.126,70.680 358.661 C 70.812 358.318,71.340 358.037,71.853 358.037 C 72.366 358.037,72.886 357.777,73.008 357.459 C 73.130 357.141,73.644 356.882,74.151 356.882 C 74.658 356.882,75.072 356.708,75.072 356.497 C 75.072 356.285,75.424 356.112,75.854 356.112 C 76.284 356.112,76.736 355.852,76.858 355.534 C 76.980 355.217,77.476 354.957,77.960 354.957 C 78.444 354.957,78.946 354.679,79.077 354.339 C 79.207 354.000,79.559 353.816,79.860 353.931 C 80.160 354.047,80.613 353.891,80.866 353.586 C 81.119 353.281,81.657 353.032,82.061 353.032 C 82.465 353.032,82.896 352.772,83.018 352.454 C 83.140 352.137,83.546 351.877,83.921 351.877 C 84.296 351.877,84.812 351.624,85.068 351.316 C 85.375 350.946,85.915 350.831,86.649 350.978 C 87.466 351.141,87.829 351.034,88.004 350.576 C 88.161 350.169,88.702 349.952,89.562 349.952 C 90.379 349.952,90.965 349.732,91.102 349.374 C 91.224 349.057,91.739 348.797,92.245 348.797 C 92.752 348.797,93.167 348.624,93.167 348.412 C 93.167 348.200,93.518 348.027,93.949 348.027 C 94.379 348.027,94.830 347.767,94.952 347.449 C 95.095 347.077,95.691 346.872,96.631 346.872 C 97.572 346.872,98.168 346.667,98.311 346.295 C 98.432 345.977,98.884 345.717,99.314 345.717 C 99.744 345.717,100.096 345.544,100.096 345.332 C 100.096 345.120,100.771 344.947,101.595 344.947 C 102.572 344.947,103.171 344.746,103.315 344.370 C 103.437 344.052,103.870 343.792,104.278 343.792 C 104.685 343.792,105.120 343.529,105.243 343.208 C 105.391 342.823,105.887 342.655,106.699 342.717 C 107.404 342.771,107.998 342.609,108.088 342.339 C 108.174 342.080,108.842 341.867,109.573 341.867 C 110.397 341.867,110.984 341.649,111.122 341.290 C 111.265 340.917,111.860 340.712,112.801 340.712 C 113.734 340.712,114.337 340.507,114.477 340.141 C 114.634 339.733,115.027 339.637,115.860 339.803 C 116.726 339.977,117.085 339.877,117.263 339.412 C 117.420 339.004,117.961 338.787,118.821 338.787 C 119.638 338.787,120.224 338.568,120.361 338.210 C 120.497 337.856,121.081 337.632,121.866 337.632 C 122.572 337.632,123.257 337.459,123.388 337.247 C 123.519 337.036,124.114 336.862,124.711 336.862 C 125.308 336.862,126.012 336.603,126.275 336.285 C 126.579 335.919,127.428 335.707,128.591 335.707 C 129.869 335.707,130.495 335.532,130.649 335.130 C 130.778 334.796,131.353 334.552,132.015 334.552 C 132.645 334.552,133.267 334.379,133.397 334.167 C 133.528 333.956,134.473 333.782,135.496 333.782 C 136.796 333.782,137.424 333.608,137.579 333.205 C 137.716 332.847,138.302 332.628,139.119 332.628 C 139.980 332.628,140.521 332.411,140.677 332.003 C 140.871 331.498,141.329 331.412,143.064 331.556 C 144.633 331.686,145.264 331.595,145.409 331.218 C 145.545 330.863,146.359 330.703,148.027 330.703 C 149.823 330.703,150.504 330.554,150.669 330.125 C 150.838 329.683,151.567 329.548,153.790 329.548 C 155.466 329.548,156.689 329.385,156.689 329.163 C 156.689 328.951,157.469 328.778,158.422 328.778 L 160.154 328.778 160.154 324.969 C 160.154 321.939,160.036 321.115,159.577 320.939 C 159.122 320.764,158.999 319.976,158.999 317.240 C 158.999 315.179,158.842 313.763,158.614 313.763 C 158.365 313.763,158.229 308.951,158.229 300.096 C 158.229 291.242,158.365 286.429,158.614 286.429 C 158.839 286.429,158.999 285.146,158.999 283.349 C 158.999 280.830,159.107 280.269,159.593 280.269 C 160.614 280.269,160.222 274.723,159.192 274.583 C 158.673 274.513,158.119 274.926,157.496 275.848 M241.173 276.901 C 241.322 278.224,241.691 279.581,241.993 279.915 C 242.350 280.312,242.541 281.407,242.541 283.068 C 242.541 284.468,242.714 285.721,242.926 285.852 C 243.171 286.003,243.311 291.174,243.311 300.096 C 243.311 309.019,243.171 314.189,242.926 314.341 C 242.714 314.472,242.541 316.046,242.541 317.840 C 242.541 320.385,242.414 321.151,241.963 321.324 C 241.510 321.498,241.386 322.281,241.386 324.969 L 241.386 328.393 242.686 328.393 C 243.401 328.393,244.202 328.653,244.466 328.970 C 244.811 329.387,245.726 329.548,247.744 329.548 C 249.866 329.548,250.596 329.686,250.763 330.120 C 250.934 330.566,251.453 330.649,253.122 330.494 C 254.813 330.338,255.309 330.419,255.487 330.884 C 255.653 331.318,256.297 331.473,257.934 331.473 C 259.439 331.473,260.311 331.659,260.635 332.050 C 260.899 332.368,261.603 332.628,262.200 332.628 C 262.796 332.628,263.392 332.801,263.523 333.013 C 263.653 333.224,264.509 333.397,265.423 333.397 C 266.431 333.397,267.274 333.625,267.565 333.975 C 267.829 334.293,268.611 334.552,269.303 334.552 C 270.102 334.552,270.649 334.778,270.799 335.168 C 270.979 335.638,271.447 335.752,272.760 335.647 C 273.897 335.557,274.548 335.675,274.670 335.994 C 274.772 336.260,275.473 336.477,276.227 336.477 C 277.091 336.477,277.681 336.691,277.820 337.055 C 277.955 337.405,278.537 337.632,279.301 337.632 C 279.994 337.632,280.756 337.868,280.995 338.156 C 281.234 338.444,281.829 338.603,282.317 338.510 C 282.833 338.411,283.415 338.595,283.709 338.949 C 283.986 339.283,284.691 339.557,285.274 339.557 C 285.858 339.557,286.551 339.817,286.814 340.135 C 287.078 340.452,287.879 340.712,288.594 340.712 C 289.309 340.712,289.894 340.885,289.894 341.097 C 289.894 341.309,290.479 341.482,291.194 341.482 C 291.910 341.482,292.710 341.742,292.974 342.060 C 293.238 342.377,293.931 342.637,294.514 342.637 C 295.097 342.637,295.790 342.897,296.054 343.215 C 296.317 343.532,296.858 343.792,297.256 343.792 C 297.654 343.792,297.979 343.965,297.979 344.177 C 297.979 344.389,298.564 344.562,299.279 344.562 C 299.994 344.562,300.795 344.822,301.059 345.140 C 301.322 345.457,301.845 345.717,302.220 345.717 C 302.595 345.717,302.990 345.949,303.099 346.233 C 303.224 346.558,303.710 346.689,304.414 346.585 C 305.126 346.481,305.713 346.642,306.036 347.032 C 306.315 347.367,306.850 347.642,307.224 347.642 C 307.599 347.642,308.006 347.902,308.128 348.219 C 308.267 348.582,308.855 348.797,309.709 348.797 C 310.457 348.797,311.068 348.970,311.068 349.182 C 311.068 349.394,311.483 349.567,311.990 349.567 C 312.496 349.567,313.011 349.827,313.132 350.144 C 313.272 350.507,313.860 350.722,314.714 350.722 C 315.461 350.722,316.073 350.862,316.073 351.033 C 316.073 351.361,318.745 352.647,319.428 352.647 C 319.648 352.647,320.044 352.907,320.308 353.224 C 320.572 353.542,321.113 353.802,321.510 353.802 C 321.908 353.802,322.233 353.975,322.233 354.187 C 322.233 354.398,322.558 354.572,322.956 354.572 C 323.353 354.572,323.894 354.832,324.158 355.149 C 324.421 355.467,324.968 355.727,325.372 355.727 C 325.776 355.727,326.207 355.987,326.329 356.304 C 326.450 356.622,326.965 356.882,327.471 356.882 C 327.978 356.882,328.393 357.055,328.393 357.267 C 328.393 357.478,328.718 357.652,329.116 357.652 C 329.513 357.652,330.054 357.911,330.318 358.229 C 330.581 358.547,331.274 358.807,331.858 358.807 C 332.441 358.807,333.134 359.066,333.397 359.384 C 333.661 359.702,334.192 359.962,334.577 359.962 C 334.962 359.962,335.384 360.135,335.515 360.346 C 335.646 360.558,336.011 360.731,336.326 360.731 C 336.641 360.731,337.301 361.165,337.791 361.694 C 338.282 362.223,338.945 362.656,339.266 362.656 C 339.586 362.656,340.064 362.916,340.327 363.234 C 340.591 363.551,341.137 363.811,341.541 363.811 C 341.946 363.811,342.376 364.071,342.498 364.389 C 342.620 364.706,343.134 364.966,343.641 364.966 C 344.148 364.966,344.562 365.140,344.562 365.351 C 344.562 365.563,344.887 365.736,345.285 365.736 C 345.682 365.736,346.223 365.996,346.487 366.314 C 346.751 366.631,347.292 366.891,347.689 366.891 C 348.087 366.891,348.412 367.031,348.412 367.202 C 348.412 367.531,351.084 368.816,351.767 368.816 C 351.987 368.816,352.383 369.076,352.647 369.394 C 352.910 369.711,353.451 369.971,353.849 369.971 C 354.246 369.971,354.572 370.144,354.572 370.356 C 354.572 370.568,354.886 370.741,355.270 370.741 C 355.654 370.741,356.466 371.261,357.074 371.896 C 357.683 372.531,358.484 373.051,358.856 373.051 C 359.227 373.051,359.638 373.224,359.769 373.436 C 359.900 373.648,360.325 373.821,360.713 373.821 C 361.101 373.821,361.519 374.081,361.641 374.398 C 361.763 374.716,362.184 374.976,362.577 374.976 C 362.970 374.976,363.699 375.409,364.196 375.938 C 364.762 376.541,365.523 376.901,366.229 376.901 C 366.975 376.901,367.615 377.228,368.115 377.863 C 368.531 378.393,369.197 378.826,369.595 378.826 C 369.993 378.826,370.456 379.063,370.626 379.354 C 370.864 379.762,372.547 379.915,378.056 380.027 L 385.178 380.173 385.178 378.826 C 385.178 377.953,385.008 377.512,384.697 377.575 C 384.409 377.632,384.216 377.263,384.216 376.656 C 384.216 376.069,383.811 375.266,383.253 374.750 C 382.724 374.259,382.291 373.503,382.291 373.069 C 382.291 372.625,382.038 372.281,381.713 372.281 C 381.354 372.281,381.136 371.917,381.136 371.319 C 381.136 370.789,380.962 370.356,380.751 370.356 C 380.539 370.356,380.366 369.923,380.366 369.394 C 380.366 368.795,380.148 368.431,379.788 368.431 C 379.471 368.431,379.211 368.111,379.211 367.720 C 379.211 366.905,378.183 364.705,377.646 364.374 C 377.448 364.251,377.283 363.858,377.279 363.500 C 377.276 363.142,376.842 362.441,376.317 361.942 C 375.791 361.444,375.361 360.621,375.361 360.114 C 375.361 359.551,375.136 359.192,374.783 359.192 C 374.424 359.192,374.206 358.828,374.206 358.229 C 374.206 357.700,374.009 357.267,373.767 357.267 C 373.039 357.267,372.306 355.995,372.293 354.709 C 372.286 353.998,372.043 353.408,371.704 353.278 C 371.386 353.156,371.126 352.617,371.126 352.081 C 371.126 351.545,370.953 351.107,370.741 351.107 C 370.529 351.107,370.356 350.674,370.356 350.144 C 370.356 349.615,370.183 349.182,369.971 349.182 C 369.303 349.182,368.046 347.674,368.046 346.872 C 368.046 346.449,367.873 346.102,367.661 346.102 C 367.449 346.102,367.276 345.669,367.276 345.140 C 367.276 344.541,367.058 344.177,366.699 344.177 C 366.349 344.177,366.121 343.819,366.121 343.269 C 366.121 342.749,365.709 342.051,365.159 341.637 C 364.629 341.240,364.196 340.604,364.196 340.224 C 364.196 339.844,363.936 339.433,363.619 339.312 C 363.301 339.190,363.041 338.686,363.041 338.191 C 363.041 337.697,362.868 337.186,362.656 337.055 C 362.445 336.924,362.271 336.475,362.271 336.058 C 362.271 335.640,362.012 335.199,361.694 335.077 C 361.376 334.955,361.116 334.440,361.116 333.934 C 361.116 333.372,360.891 333.013,360.539 333.013 C 360.180 333.013,359.962 332.649,359.962 332.050 C 359.962 331.521,359.788 331.088,359.577 331.088 C 359.365 331.088,359.192 330.693,359.192 330.211 C 359.192 329.351,358.015 328.008,357.262 328.008 C 357.053 328.008,356.882 327.585,356.882 327.068 C 356.882 326.551,356.708 326.021,356.497 325.890 C 356.285 325.759,356.112 325.311,356.112 324.893 C 356.112 324.475,355.852 324.034,355.534 323.912 C 355.217 323.790,354.957 323.276,354.957 322.769 C 354.957 322.263,354.802 321.848,354.613 321.848 C 354.425 321.848,354.161 321.415,354.029 320.885 C 353.896 320.356,353.617 319.923,353.409 319.923 C 353.202 319.923,353.032 319.508,353.032 319.002 C 353.032 318.495,352.772 317.981,352.454 317.859 C 352.137 317.737,351.877 317.296,351.877 316.878 C 351.877 316.460,351.704 316.012,351.492 315.881 C 351.280 315.750,351.104 315.350,351.100 314.992 C 351.097 314.634,350.663 313.933,350.138 313.434 C 349.612 312.935,349.182 312.194,349.182 311.786 C 349.182 311.378,348.922 310.944,348.604 310.823 C 348.287 310.701,348.027 310.186,348.027 309.680 C 348.027 309.117,347.802 308.758,347.449 308.758 C 347.090 308.758,346.872 308.395,346.872 307.796 C 346.872 307.267,346.720 306.833,346.535 306.833 C 346.350 306.833,346.098 306.333,345.976 305.721 L 345.753 304.609 343.233 304.812 C 341.073 304.985,340.712 304.924,340.712 304.384 C 340.712 304.010,340.399 303.754,339.942 303.754 C 339.514 303.754,339.172 304.010,339.172 304.331 C 339.172 304.840,335.282 304.909,306.471 304.909 L 273.770 304.909 272.015 303.178 C 271.050 302.227,270.260 301.274,270.260 301.061 C 270.260 300.848,270.093 300.674,269.888 300.674 C 269.385 300.674,267.180 298.490,267.180 297.992 C 267.180 297.773,266.920 297.594,266.603 297.594 C 266.285 297.594,266.025 297.408,266.025 297.181 C 266.025 296.756,265.086 295.669,264.718 295.669 C 264.337 295.669,262.175 293.389,262.175 292.987 C 262.175 292.768,262.008 292.589,261.803 292.589 C 261.300 292.589,259.095 290.405,259.095 289.907 C 259.095 289.688,258.835 289.509,258.518 289.509 C 258.200 289.509,257.940 289.324,257.940 289.097 C 257.940 288.655,256.995 287.584,256.605 287.584 C 256.475 287.584,255.710 286.891,254.905 286.044 C 254.099 285.197,253.166 284.504,252.831 284.504 C 252.496 284.504,251.881 284.071,251.464 283.542 C 251.048 283.013,250.516 282.579,250.281 282.579 C 250.047 282.579,249.856 282.389,249.856 282.155 C 249.856 281.398,242.480 274.495,241.671 274.495 C 240.955 274.495,240.920 274.661,241.173 276.901 " stroke="none" fill="#4444ac" fill-rule="evenodd"></path><path id="path1" d="M188.612 32.050 C 188.498 32.877,188.557 33.349,188.750 33.155 C 188.936 32.970,189.026 32.320,188.950 31.712 C 188.823 30.694,188.796 30.721,188.612 32.050 M180.708 49.828 C 180.592 50.130,180.562 50.780,180.641 51.271 C 180.746 51.929,180.836 51.784,180.979 50.722 C 181.180 49.227,181.074 48.875,180.708 49.828 M177.568 58.133 C 177.568 58.874,177.647 59.177,177.744 58.807 C 177.841 58.436,177.841 57.830,177.744 57.459 C 177.647 57.089,177.568 57.392,177.568 58.133 M172.654 69.105 C 172.555 69.423,172.389 69.951,172.285 70.280 C 172.182 70.608,172.248 70.784,172.432 70.671 C 172.616 70.557,172.850 70.028,172.952 69.496 C 173.153 68.443,172.946 68.171,172.654 69.105 M167.649 80.269 C 167.550 80.587,167.384 81.116,167.281 81.444 C 167.177 81.773,167.243 81.949,167.427 81.835 C 167.611 81.721,167.845 81.193,167.947 80.660 C 168.148 79.608,167.941 79.336,167.649 80.269 M156.459 104.483 C 156.346 104.778,156.312 105.688,156.384 106.504 C 156.506 107.879,156.529 107.840,156.699 105.967 C 156.885 103.904,156.825 103.529,156.459 104.483 M360.833 108.457 C 361.418 108.546,362.284 108.543,362.758 108.452 C 363.231 108.361,362.753 108.288,361.694 108.291 C 360.635 108.294,360.248 108.369,360.833 108.457 M60.783 110.217 C 60.951 110.384,62.805 110.469,64.904 110.407 L 68.720 110.294 64.599 110.104 C 62.332 109.999,60.615 110.050,60.783 110.217 M159.293 111.086 C 159.394 111.612,159.603 112.121,159.759 112.217 C 159.915 112.314,159.960 111.962,159.860 111.436 C 159.759 110.910,159.550 110.401,159.394 110.304 C 159.238 110.208,159.193 110.560,159.293 111.086 M333.109 110.371 C 333.479 110.468,334.086 110.468,334.456 110.371 C 334.827 110.274,334.524 110.195,333.782 110.195 C 333.041 110.195,332.738 110.274,333.109 110.371 M330.895 111.261 L 329.355 111.537 330.776 111.591 C 331.558 111.621,332.304 111.473,332.435 111.261 C 332.566 111.049,332.619 110.900,332.554 110.930 C 332.489 110.961,331.742 111.109,330.895 111.261 M311.311 113.490 C 311.207 113.658,311.760 113.734,312.539 113.661 C 314.920 113.435,315.200 113.277,313.305 113.230 C 312.311 113.206,311.414 113.323,311.311 113.490 M97.016 115.263 C 97.016 115.346,97.695 115.479,98.524 115.559 C 99.353 115.638,99.949 115.569,99.849 115.407 C 99.666 115.110,97.016 114.976,97.016 115.263 M299.042 116.538 C 299.521 116.630,300.214 116.627,300.582 116.530 C 300.950 116.434,300.558 116.358,299.711 116.363 C 298.864 116.367,298.563 116.446,299.042 116.538 M127.226 166.121 C 127.126 166.439,126.961 166.968,126.857 167.296 C 126.754 167.625,126.820 167.801,127.004 167.687 C 127.188 167.573,127.422 167.044,127.523 166.512 C 127.725 165.460,127.517 165.188,127.226 166.121 M119.141 182.291 C 119.042 182.608,118.876 183.137,118.772 183.466 C 118.669 183.794,118.735 183.970,118.919 183.856 C 119.103 183.743,119.337 183.214,119.439 182.681 C 119.640 181.629,119.433 181.357,119.141 182.291 M111.056 198.460 C 110.957 198.778,110.791 199.306,110.688 199.635 C 110.584 199.964,110.650 200.139,110.834 200.026 C 111.018 199.912,111.252 199.383,111.354 198.851 C 111.555 197.798,111.348 197.527,111.056 198.460 M251.011 205.390 C 251.729 206.131,252.403 206.737,252.509 206.737 C 252.615 206.737,252.114 206.131,251.396 205.390 C 250.677 204.649,250.003 204.042,249.897 204.042 C 249.791 204.042,250.292 204.649,251.011 205.390 M102.972 214.629 C 102.872 214.947,102.707 215.476,102.603 215.804 C 102.500 216.133,102.566 216.309,102.750 216.195 C 102.934 216.081,103.167 215.553,103.269 215.020 C 103.470 213.968,103.263 213.696,102.972 214.629 M310.112 265.650 C 310.208 265.806,310.717 266.015,311.243 266.116 C 311.770 266.217,312.121 266.171,312.025 266.015 C 311.929 265.860,311.419 265.650,310.893 265.549 C 310.367 265.449,310.015 265.494,310.112 265.650 M241.675 279.884 C 241.959 280.202,242.156 281.487,242.156 283.019 C 242.156 284.446,242.286 285.695,242.445 285.794 C 243.089 286.195,242.491 280.322,241.838 279.829 C 241.294 279.420,241.268 279.428,241.675 279.884 M79.600 281.697 C 80.079 281.789,80.772 281.785,81.140 281.689 C 81.508 281.593,81.116 281.517,80.269 281.522 C 79.423 281.526,79.121 281.605,79.600 281.697 M64.779 283.626 C 65.364 283.714,66.231 283.712,66.704 283.620 C 67.178 283.529,66.699 283.457,65.640 283.459 C 64.581 283.462,64.194 283.537,64.779 283.626 M330.414 283.615 C 330.784 283.712,331.391 283.712,331.761 283.615 C 332.132 283.518,331.829 283.439,331.088 283.439 C 330.346 283.439,330.043 283.518,330.414 283.615 M62.175 284.504 L 61.020 284.798 62.056 284.844 C 62.626 284.869,63.199 284.716,63.330 284.504 C 63.461 284.293,63.515 284.140,63.449 284.165 C 63.384 284.190,62.810 284.343,62.175 284.504 M24.932 289.781 C 25.411 289.874,26.104 289.870,26.472 289.774 C 26.840 289.677,26.449 289.602,25.602 289.606 C 24.755 289.611,24.453 289.689,24.932 289.781 M18.672 293.219 C 21.363 293.503,25.324 293.529,25.158 293.263 C 25.059 293.104,23.300 293.002,21.248 293.036 C 19.196 293.070,18.037 293.152,18.672 293.219 M373.340 294.401 C 373.816 294.492,374.596 294.492,375.072 294.401 C 375.549 294.309,375.159 294.234,374.206 294.234 C 373.253 294.234,372.863 294.309,373.340 294.401 M242.352 314.629 C 242.066 315.461,241.950 321.442,242.225 321.157 C 242.472 320.901,242.857 314.145,242.625 314.147 C 242.565 314.148,242.442 314.365,242.352 314.629 M49.459 316.651 C 49.359 316.968,49.194 317.497,49.090 317.826 C 48.987 318.154,49.053 318.330,49.237 318.216 C 49.421 318.103,49.654 317.574,49.756 317.041 C 49.957 315.989,49.750 315.717,49.459 316.651 M46.379 322.810 C 46.279 323.128,46.114 323.657,46.010 323.985 C 45.907 324.314,45.973 324.490,46.157 324.376 C 46.341 324.262,46.575 323.734,46.676 323.201 C 46.878 322.149,46.670 321.877,46.379 322.810 M242.252 328.658 C 242.623 328.755,243.229 328.755,243.600 328.658 C 243.970 328.561,243.667 328.482,242.926 328.482 C 242.185 328.482,241.882 328.561,242.252 328.658 M156.689 329.098 C 156.689 329.346,156.213 329.571,155.630 329.600 C 154.659 329.648,154.646 329.667,155.482 329.825 C 156.419 330.003,157.421 329.381,156.952 328.912 C 156.808 328.768,156.689 328.851,156.689 329.098 M141.776 331.749 C 142.361 331.837,143.228 331.835,143.701 331.744 C 144.175 331.652,143.696 331.580,142.637 331.583 C 141.578 331.586,141.191 331.660,141.776 331.749 M264.774 333.669 C 265.250 333.761,266.030 333.761,266.506 333.669 C 266.983 333.577,266.593 333.502,265.640 333.502 C 264.687 333.502,264.297 333.577,264.774 333.669 M132.050 334.552 L 130.703 334.836 131.931 334.887 C 132.607 334.915,133.267 334.764,133.397 334.552 C 133.528 334.341,133.582 334.190,133.516 334.218 C 133.451 334.246,132.791 334.396,132.050 334.552 M275.265 336.628 C 275.265 336.710,275.859 336.847,276.585 336.932 C 277.311 337.017,277.821 336.949,277.717 336.782 C 277.531 336.480,275.265 336.338,275.265 336.628 M290.760 341.748 C 291.131 341.844,291.737 341.844,292.108 341.748 C 292.478 341.651,292.175 341.572,291.434 341.572 C 290.693 341.572,290.390 341.651,290.760 341.748 M33.289 347.064 C 33.190 347.382,33.024 347.911,32.921 348.239 C 32.817 348.568,32.883 348.744,33.067 348.630 C 33.251 348.516,33.485 347.988,33.587 347.455 C 33.788 346.403,33.581 346.131,33.289 347.064 M17.120 376.323 C 17.021 376.641,16.855 377.170,16.751 377.498 C 16.648 377.827,16.714 378.003,16.898 377.889 C 17.082 377.775,17.316 377.247,17.417 376.714 C 17.619 375.662,17.411 375.390,17.120 376.323 M19.363 380.267 C 21.014 380.340,23.612 380.339,25.138 380.266 C 26.663 380.193,25.313 380.134,22.137 380.135 C 18.961 380.135,17.712 380.195,19.363 380.267 M373.532 380.266 C 374.962 380.340,377.300 380.340,378.730 380.266 C 380.159 380.192,378.989 380.132,376.131 380.132 C 373.272 380.132,372.103 380.192,373.532 380.266 " stroke="none" fill="#2424b0" fill-rule="evenodd"></path><path id="path2" d="M188.612 32.050 C 188.498 32.877,188.557 33.349,188.750 33.155 C 188.936 32.970,189.026 32.320,188.950 31.712 C 188.823 30.694,188.796 30.721,188.612 32.050 M180.708 49.828 C 180.592 50.130,180.562 50.780,180.641 51.271 C 180.746 51.929,180.836 51.784,180.979 50.722 C 181.180 49.227,181.074 48.875,180.708 49.828 M177.568 58.133 C 177.568 58.874,177.647 59.177,177.744 58.807 C 177.841 58.436,177.841 57.830,177.744 57.459 C 177.647 57.089,177.568 57.392,177.568 58.133 M172.654 69.105 C 172.555 69.423,172.389 69.951,172.285 70.280 C 172.182 70.608,172.248 70.784,172.432 70.671 C 172.616 70.557,172.850 70.028,172.952 69.496 C 173.153 68.443,172.946 68.171,172.654 69.105 M167.649 80.269 C 167.550 80.587,167.384 81.116,167.281 81.444 C 167.177 81.773,167.243 81.949,167.427 81.835 C 167.611 81.721,167.845 81.193,167.947 80.660 C 168.148 79.608,167.941 79.336,167.649 80.269 M156.459 104.483 C 156.346 104.778,156.312 105.688,156.384 106.504 C 156.506 107.879,156.529 107.840,156.699 105.967 C 156.885 103.904,156.825 103.529,156.459 104.483 M360.833 108.457 C 361.418 108.546,362.284 108.543,362.758 108.452 C 363.231 108.361,362.753 108.288,361.694 108.291 C 360.635 108.294,360.248 108.369,360.833 108.457 M60.783 110.217 C 60.951 110.384,62.805 110.469,64.904 110.407 L 68.720 110.294 64.599 110.104 C 62.332 109.999,60.615 110.050,60.783 110.217 M159.293 111.086 C 159.394 111.612,159.603 112.121,159.759 112.217 C 159.915 112.314,159.960 111.962,159.860 111.436 C 159.759 110.910,159.550 110.401,159.394 110.304 C 159.238 110.208,159.193 110.560,159.293 111.086 M333.109 110.371 C 333.479 110.468,334.086 110.468,334.456 110.371 C 334.827 110.274,334.524 110.195,333.782 110.195 C 333.041 110.195,332.738 110.274,333.109 110.371 M330.895 111.261 L 329.355 111.537 330.776 111.591 C 331.558 111.621,332.304 111.473,332.435 111.261 C 332.566 111.049,332.619 110.900,332.554 110.930 C 332.489 110.961,331.742 111.109,330.895 111.261 M311.311 113.490 C 311.207 113.658,311.760 113.734,312.539 113.661 C 314.920 113.435,315.200 113.277,313.305 113.230 C 312.311 113.206,311.414 113.323,311.311 113.490 M97.016 115.263 C 97.016 115.346,97.695 115.479,98.524 115.559 C 99.353 115.638,99.949 115.569,99.849 115.407 C 99.666 115.110,97.016 114.976,97.016 115.263 M299.042 116.538 C 299.521 116.630,300.214 116.627,300.582 116.530 C 300.950 116.434,300.558 116.358,299.711 116.363 C 298.864 116.367,298.563 116.446,299.042 116.538 M127.226 166.121 C 127.126 166.439,126.961 166.968,126.857 167.296 C 126.754 167.625,126.820 167.801,127.004 167.687 C 127.188 167.573,127.422 167.044,127.523 166.512 C 127.725 165.460,127.517 165.188,127.226 166.121 M119.141 182.291 C 119.042 182.608,118.876 183.137,118.772 183.466 C 118.669 183.794,118.735 183.970,118.919 183.856 C 119.103 183.743,119.337 183.214,119.439 182.681 C 119.640 181.629,119.433 181.357,119.141 182.291 M111.056 198.460 C 110.957 198.778,110.791 199.306,110.688 199.635 C 110.584 199.964,110.650 200.139,110.834 200.026 C 111.018 199.912,111.252 199.383,111.354 198.851 C 111.555 197.798,111.348 197.527,111.056 198.460 M251.011 205.390 C 251.729 206.131,252.403 206.737,252.509 206.737 C 252.615 206.737,252.114 206.131,251.396 205.390 C 250.677 204.649,250.003 204.042,249.897 204.042 C 249.791 204.042,250.292 204.649,251.011 205.390 M102.972 214.629 C 102.872 214.947,102.707 215.476,102.603 215.804 C 102.500 216.133,102.566 216.309,102.750 216.195 C 102.934 216.081,103.167 215.553,103.269 215.020 C 103.470 213.968,103.263 213.696,102.972 214.629 M310.112 265.650 C 310.208 265.806,310.717 266.015,311.243 266.116 C 311.770 266.217,312.121 266.171,312.025 266.015 C 311.929 265.860,311.419 265.650,310.893 265.549 C 310.367 265.449,310.015 265.494,310.112 265.650 M241.675 279.884 C 241.959 280.202,242.156 281.487,242.156 283.019 C 242.156 284.446,242.286 285.695,242.445 285.794 C 243.089 286.195,242.491 280.322,241.838 279.829 C 241.294 279.420,241.268 279.428,241.675 279.884 M79.600 281.697 C 80.079 281.789,80.772 281.785,81.140 281.689 C 81.508 281.593,81.116 281.517,80.269 281.522 C 79.423 281.526,79.121 281.605,79.600 281.697 M64.779 283.626 C 65.364 283.714,66.231 283.712,66.704 283.620 C 67.178 283.529,66.699 283.457,65.640 283.459 C 64.581 283.462,64.194 283.537,64.779 283.626 M330.414 283.615 C 330.784 283.712,331.391 283.712,331.761 283.615 C 332.132 283.518,331.829 283.439,331.088 283.439 C 330.346 283.439,330.043 283.518,330.414 283.615 M62.175 284.504 L 61.020 284.798 62.056 284.844 C 62.626 284.869,63.199 284.716,63.330 284.504 C 63.461 284.293,63.515 284.140,63.449 284.165 C 63.384 284.190,62.810 284.343,62.175 284.504 M24.932 289.781 C 25.411 289.874,26.104 289.870,26.472 289.774 C 26.840 289.677,26.449 289.602,25.602 289.606 C 24.755 289.611,24.453 289.689,24.932 289.781 M18.672 293.219 C 21.363 293.503,25.324 293.529,25.158 293.263 C 25.059 293.104,23.300 293.002,21.248 293.036 C 19.196 293.070,18.037 293.152,18.672 293.219 M373.340 294.401 C 373.816 294.492,374.596 294.492,375.072 294.401 C 375.549 294.309,375.159 294.234,374.206 294.234 C 373.253 294.234,372.863 294.309,373.340 294.401 M242.352 314.629 C 242.066 315.461,241.950 321.442,242.225 321.157 C 242.472 320.901,242.857 314.145,242.625 314.147 C 242.565 314.148,242.442 314.365,242.352 314.629 M49.459 316.651 C 49.359 316.968,49.194 317.497,49.090 317.826 C 48.987 318.154,49.053 318.330,49.237 318.216 C 49.421 318.103,49.654 317.574,49.756 317.041 C 49.957 315.989,49.750 315.717,49.459 316.651 M46.379 322.810 C 46.279 323.128,46.114 323.657,46.010 323.985 C 45.907 324.314,45.973 324.490,46.157 324.376 C 46.341 324.262,46.575 323.734,46.676 323.201 C 46.878 322.149,46.670 321.877,46.379 322.810 M242.252 328.658 C 242.623 328.755,243.229 328.755,243.600 328.658 C 243.970 328.561,243.667 328.482,242.926 328.482 C 242.185 328.482,241.882 328.561,242.252 328.658 M156.689 329.098 C 156.689 329.346,156.213 329.571,155.630 329.600 C 154.659 329.648,154.646 329.667,155.482 329.825 C 156.419 330.003,157.421 329.381,156.952 328.912 C 156.808 328.768,156.689 328.851,156.689 329.098 M141.776 331.749 C 142.361 331.837,143.228 331.835,143.701 331.744 C 144.175 331.652,143.696 331.580,142.637 331.583 C 141.578 331.586,141.191 331.660,141.776 331.749 M264.774 333.669 C 265.250 333.761,266.030 333.761,266.506 333.669 C 266.983 333.577,266.593 333.502,265.640 333.502 C 264.687 333.502,264.297 333.577,264.774 333.669 M132.050 334.552 L 130.703 334.836 131.931 334.887 C 132.607 334.915,133.267 334.764,133.397 334.552 C 133.528 334.341,133.582 334.190,133.516 334.218 C 133.451 334.246,132.791 334.396,132.050 334.552 M275.265 336.628 C 275.265 336.710,275.859 336.847,276.585 336.932 C 277.311 337.017,277.821 336.949,277.717 336.782 C 277.531 336.480,275.265 336.338,275.265 336.628 M290.760 341.748 C 291.131 341.844,291.737 341.844,292.108 341.748 C 292.478 341.651,292.175 341.572,291.434 341.572 C 290.693 341.572,290.390 341.651,290.760 341.748 M33.289 347.064 C 33.190 347.382,33.024 347.911,32.921 348.239 C 32.817 348.568,32.883 348.744,33.067 348.630 C 33.251 348.516,33.485 347.988,33.587 347.455 C 33.788 346.403,33.581 346.131,33.289 347.064 M17.120 376.323 C 17.021 376.641,16.855 377.170,16.751 377.498 C 16.648 377.827,16.714 378.003,16.898 377.889 C 17.082 377.775,17.316 377.247,17.417 376.714 C 17.619 375.662,17.411 375.390,17.120 376.323 M19.363 380.267 C 21.014 380.340,23.612 380.339,25.138 380.266 C 26.663 380.193,25.313 380.134,22.137 380.135 C 18.961 380.135,17.712 380.195,19.363 380.267 M373.532 380.266 C 374.962 380.340,377.300 380.340,378.730 380.266 C 380.159 380.192,378.989 380.132,376.131 380.132 C 373.272 380.132,372.103 380.192,373.532 380.266 " stroke="none" fill="#2424b0" fill-rule="evenodd"></path><path id="path3" d="M188.612 32.050 C 188.498 32.877,188.557 33.349,188.750 33.155 C 188.936 32.970,189.026 32.320,188.950 31.712 C 188.823 30.694,188.796 30.721,188.612 32.050 M180.708 49.828 C 180.592 50.130,180.562 50.780,180.641 51.271 C 180.746 51.929,180.836 51.784,180.979 50.722 C 181.180 49.227,181.074 48.875,180.708 49.828 M177.568 58.133 C 177.568 58.874,177.647 59.177,177.744 58.807 C 177.841 58.436,177.841 57.830,177.744 57.459 C 177.647 57.089,177.568 57.392,177.568 58.133 M172.654 69.105 C 172.555 69.423,172.389 69.951,172.285 70.280 C 172.182 70.608,172.248 70.784,172.432 70.671 C 172.616 70.557,172.850 70.028,172.952 69.496 C 173.153 68.443,172.946 68.171,172.654 69.105 M167.649 80.269 C 167.550 80.587,167.384 81.116,167.281 81.444 C 167.177 81.773,167.243 81.949,167.427 81.835 C 167.611 81.721,167.845 81.193,167.947 80.660 C 168.148 79.608,167.941 79.336,167.649 80.269 M156.459 104.483 C 156.346 104.778,156.312 105.688,156.384 106.504 C 156.506 107.879,156.529 107.840,156.699 105.967 C 156.885 103.904,156.825 103.529,156.459 104.483 M360.833 108.457 C 361.418 108.546,362.284 108.543,362.758 108.452 C 363.231 108.361,362.753 108.288,361.694 108.291 C 360.635 108.294,360.248 108.369,360.833 108.457 M60.783 110.217 C 60.951 110.384,62.805 110.469,64.904 110.407 L 68.720 110.294 64.599 110.104 C 62.332 109.999,60.615 110.050,60.783 110.217 M159.293 111.086 C 159.394 111.612,159.603 112.121,159.759 112.217 C 159.915 112.314,159.960 111.962,159.860 111.436 C 159.759 110.910,159.550 110.401,159.394 110.304 C 159.238 110.208,159.193 110.560,159.293 111.086 M333.109 110.371 C 333.479 110.468,334.086 110.468,334.456 110.371 C 334.827 110.274,334.524 110.195,333.782 110.195 C 333.041 110.195,332.738 110.274,333.109 110.371 M330.895 111.261 L 329.355 111.537 330.776 111.591 C 331.558 111.621,332.304 111.473,332.435 111.261 C 332.566 111.049,332.619 110.900,332.554 110.930 C 332.489 110.961,331.742 111.109,330.895 111.261 M311.311 113.490 C 311.207 113.658,311.760 113.734,312.539 113.661 C 314.920 113.435,315.200 113.277,313.305 113.230 C 312.311 113.206,311.414 113.323,311.311 113.490 M97.016 115.263 C 97.016 115.346,97.695 115.479,98.524 115.559 C 99.353 115.638,99.949 115.569,99.849 115.407 C 99.666 115.110,97.016 114.976,97.016 115.263 M299.042 116.538 C 299.521 116.630,300.214 116.627,300.582 116.530 C 300.950 116.434,300.558 116.358,299.711 116.363 C 298.864 116.367,298.563 116.446,299.042 116.538 M127.226 166.121 C 127.126 166.439,126.961 166.968,126.857 167.296 C 126.754 167.625,126.820 167.801,127.004 167.687 C 127.188 167.573,127.422 167.044,127.523 166.512 C 127.725 165.460,127.517 165.188,127.226 166.121 M119.141 182.291 C 119.042 182.608,118.876 183.137,118.772 183.466 C 118.669 183.794,118.735 183.970,118.919 183.856 C 119.103 183.743,119.337 183.214,119.439 182.681 C 119.640 181.629,119.433 181.357,119.141 182.291 M111.056 198.460 C 110.957 198.778,110.791 199.306,110.688 199.635 C 110.584 199.964,110.650 200.139,110.834 200.026 C 111.018 199.912,111.252 199.383,111.354 198.851 C 111.555 197.798,111.348 197.527,111.056 198.460 M251.011 205.390 C 251.729 206.131,252.403 206.737,252.509 206.737 C 252.615 206.737,252.114 206.131,251.396 205.390 C 250.677 204.649,250.003 204.042,249.897 204.042 C 249.791 204.042,250.292 204.649,251.011 205.390 M102.972 214.629 C 102.872 214.947,102.707 215.476,102.603 215.804 C 102.500 216.133,102.566 216.309,102.750 216.195 C 102.934 216.081,103.167 215.553,103.269 215.020 C 103.470 213.968,103.263 213.696,102.972 214.629 M310.112 265.650 C 310.208 265.806,310.717 266.015,311.243 266.116 C 311.770 266.217,312.121 266.171,312.025 266.015 C 311.929 265.860,311.419 265.650,310.893 265.549 C 310.367 265.449,310.015 265.494,310.112 265.650 M241.675 279.884 C 241.959 280.202,242.156 281.487,242.156 283.019 C 242.156 284.446,242.286 285.695,242.445 285.794 C 243.089 286.195,242.491 280.322,241.838 279.829 C 241.294 279.420,241.268 279.428,241.675 279.884 M79.600 281.697 C 80.079 281.789,80.772 281.785,81.140 281.689 C 81.508 281.593,81.116 281.517,80.269 281.522 C 79.423 281.526,79.121 281.605,79.600 281.697 M64.779 283.626 C 65.364 283.714,66.231 283.712,66.704 283.620 C 67.178 283.529,66.699 283.457,65.640 283.459 C 64.581 283.462,64.194 283.537,64.779 283.626 M330.414 283.615 C 330.784 283.712,331.391 283.712,331.761 283.615 C 332.132 283.518,331.829 283.439,331.088 283.439 C 330.346 283.439,330.043 283.518,330.414 283.615 M62.175 284.504 L 61.020 284.798 62.056 284.844 C 62.626 284.869,63.199 284.716,63.330 284.504 C 63.461 284.293,63.515 284.140,63.449 284.165 C 63.384 284.190,62.810 284.343,62.175 284.504 M24.932 289.781 C 25.411 289.874,26.104 289.870,26.472 289.774 C 26.840 289.677,26.449 289.602,25.602 289.606 C 24.755 289.611,24.453 289.689,24.932 289.781 M18.672 293.219 C 21.363 293.503,25.324 293.529,25.158 293.263 C 25.059 293.104,23.300 293.002,21.248 293.036 C 19.196 293.070,18.037 293.152,18.672 293.219 M373.340 294.401 C 373.816 294.492,374.596 294.492,375.072 294.401 C 375.549 294.309,375.159 294.234,374.206 294.234 C 373.253 294.234,372.863 294.309,373.340 294.401 M242.352 314.629 C 242.066 315.461,241.950 321.442,242.225 321.157 C 242.472 320.901,242.857 314.145,242.625 314.147 C 242.565 314.148,242.442 314.365,242.352 314.629 M49.459 316.651 C 49.359 316.968,49.194 317.497,49.090 317.826 C 48.987 318.154,49.053 318.330,49.237 318.216 C 49.421 318.103,49.654 317.574,49.756 317.041 C 49.957 315.989,49.750 315.717,49.459 316.651 M46.379 322.810 C 46.279 323.128,46.114 323.657,46.010 323.985 C 45.907 324.314,45.973 324.490,46.157 324.376 C 46.341 324.262,46.575 323.734,46.676 323.201 C 46.878 322.149,46.670 321.877,46.379 322.810 M242.252 328.658 C 242.623 328.755,243.229 328.755,243.600 328.658 C 243.970 328.561,243.667 328.482,242.926 328.482 C 242.185 328.482,241.882 328.561,242.252 328.658 M156.689 329.098 C 156.689 329.346,156.213 329.571,155.630 329.600 C 154.659 329.648,154.646 329.667,155.482 329.825 C 156.419 330.003,157.421 329.381,156.952 328.912 C 156.808 328.768,156.689 328.851,156.689 329.098 M141.776 331.749 C 142.361 331.837,143.228 331.835,143.701 331.744 C 144.175 331.652,143.696 331.580,142.637 331.583 C 141.578 331.586,141.191 331.660,141.776 331.749 M264.774 333.669 C 265.250 333.761,266.030 333.761,266.506 333.669 C 266.983 333.577,266.593 333.502,265.640 333.502 C 264.687 333.502,264.297 333.577,264.774 333.669 M132.050 334.552 L 130.703 334.836 131.931 334.887 C 132.607 334.915,133.267 334.764,133.397 334.552 C 133.528 334.341,133.582 334.190,133.516 334.218 C 133.451 334.246,132.791 334.396,132.050 334.552 M275.265 336.628 C 275.265 336.710,275.859 336.847,276.585 336.932 C 277.311 337.017,277.821 336.949,277.717 336.782 C 277.531 336.480,275.265 336.338,275.265 336.628 M290.760 341.748 C 291.131 341.844,291.737 341.844,292.108 341.748 C 292.478 341.651,292.175 341.572,291.434 341.572 C 290.693 341.572,290.390 341.651,290.760 341.748 M33.289 347.064 C 33.190 347.382,33.024 347.911,32.921 348.239 C 32.817 348.568,32.883 348.744,33.067 348.630 C 33.251 348.516,33.485 347.988,33.587 347.455 C 33.788 346.403,33.581 346.131,33.289 347.064 M17.120 376.323 C 17.021 376.641,16.855 377.170,16.751 377.498 C 16.648 377.827,16.714 378.003,16.898 377.889 C 17.082 377.775,17.316 377.247,17.417 376.714 C 17.619 375.662,17.411 375.390,17.120 376.323 M19.363 380.267 C 21.014 380.340,23.612 380.339,25.138 380.266 C 26.663 380.193,25.313 380.134,22.137 380.135 C 18.961 380.135,17.712 380.195,19.363 380.267 M373.532 380.266 C 374.962 380.340,377.300 380.340,378.730 380.266 C 380.159 380.192,378.989 380.132,376.131 380.132 C 373.272 380.132,372.103 380.192,373.532 380.266 " stroke="none" fill="#2424b0" fill-rule="evenodd"></path></g></svg>